<?xml version="1.0" encoding="UTF-8"?>
<!DOCTYPE svg PUBLIC "-//W3C//DTD SVG 1.1//EN" "http://www.w3.org/Graphics/SVG/1.1/DTD/svg11.dtd">
<!-- Creator: CorelDRAW 2021 (64-Bit Оценочная версия) -->
<svg xmlns="http://www.w3.org/2000/svg" xml:space="preserve" width="150px" height="150px" version="1.1" style="shape-rendering:geometricPrecision; text-rendering:geometricPrecision; image-rendering:optimizeQuality; fill-rule:evenodd; clip-rule:evenodd"
viewBox="0 0 10.11 10.11"
 xmlns:xlink="http://www.w3.org/1999/xlink"
 xmlns:xodm="http://www.corel.com/coreldraw/odm/2003">
 <defs>
  <style type="text/css">
   <![CDATA[
    .fil3 {fill:#F0821E}
    .fil4 {fill:#F8F9F9}
    .fil1 {fill:url(#id0);fill-rule:nonzero}
    .fil0 {fill:url(#id1);fill-rule:nonzero}
    .fil2 {fill:url(#id2);fill-rule:nonzero}
   ]]>
  </style>
  <linearGradient id="id0" gradientUnits="userSpaceOnUse" x1="5.06" y1="0.65" x2="5.06" y2="9.46">
   <stop offset="0" style="stop-opacity:1; stop-color:#F1F3F3"/>
   <stop offset="1" style="stop-opacity:1; stop-color:#E7E9E9"/>
  </linearGradient>
  <linearGradient id="id1" gradientUnits="userSpaceOnUse" x1="0.36" y1="-0.25" x2="9.47" y2="10.05">
   <stop offset="0" style="stop-opacity:1; stop-color:#F1F3F3"/>
   <stop offset="1" style="stop-opacity:1; stop-color:#FEFEFE"/>
  </linearGradient>
  <linearGradient id="id2" gradientUnits="userSpaceOnUse" xlink:href="#id1" x1="1.08" y1="0.56" x2="8.8" y2="9.28">
  </linearGradient>
 </defs>
 <g id="РЎР_x00bb_РѕР_x2116__x0020_1">
  <metadata id="CorelCorpID_0Corel-Layer"/>
  <g id="_2367374597968">
   <path class="fil0" d="M10.11 5.06c0,2.79 -2.26,5.05 -5.05,5.05 -2.8,0 -5.06,-2.26 -5.06,-5.05 0,-2.8 2.26,-5.06 5.06,-5.06 2.79,0 5.05,2.26 5.05,5.06z"/>
   <path class="fil1" d="M5.06 9.46c-2.43,0 -4.41,-1.98 -4.41,-4.4 0,-2.43 1.98,-4.41 4.41,-4.41 2.42,0 4.4,1.98 4.4,4.41 0,2.42 -1.98,4.4 -4.4,4.4zm0 -8.56l0 0c-2.3,0 -4.16,1.86 -4.16,4.16 0,2.29 1.86,4.16 4.16,4.16 2.29,0 4.16,-1.87 4.16,-4.16 0,-2.3 -1.87,-4.16 -4.16,-4.16z"/>
   <path class="fil2" d="M9.34 5.06c0,2.36 -1.92,4.28 -4.28,4.28 -2.37,0 -4.29,-1.92 -4.29,-4.28 0,-2.37 1.92,-4.29 4.29,-4.29 2.36,0 4.28,1.92 4.28,4.29z"/>
   <path class="fil3" d="M5.38 3.92l0.12 -0.2 0 0 0 -1.05c0,-0.19 0.16,-0.35 0.35,-0.35 0.2,0 0.36,0.16 0.36,0.35l0 0.53 0.45 -0.26c0.17,-0.1 0.39,-0.04 0.49,0.13 0.1,0.17 0.04,0.38 -0.13,0.48l-0.91 0.53 -0.11 0.19c-0.24,0.26 -0.74,-0.07 -0.62,-0.35zm0 0l0 0 0.01 0.13 -0.01 -0.13 0 0z"/>
   <path class="fil3" d="M5.88 5.48l-0.23 0c0.06,-0.1 0.09,-0.23 0.09,-0.35 0,-0.13 -0.03,-0.25 -0.09,-0.36l0.23 0 0 0 0.9 -0.52c0.17,-0.1 0.39,-0.04 0.49,0.13 0.1,0.17 0.04,0.38 -0.13,0.48l-0.46 0.27 0.46 0.26c0.17,0.1 0.23,0.32 0.13,0.48 -0.1,0.17 -0.32,0.23 -0.49,0.13l-0.9 -0.52z"/>
   <path class="fil3" d="M5.03 5.1c0,0 -0.01,0 -0.01,0.01 -0.01,0 -0.02,0 -0.02,0.01 0,0 0,0.01 0,0.02 0,0.01 0,0.01 0,0.02 0,0 0.01,0.01 0.02,0.01 0,0 0.01,0.01 0.01,0.01 0.01,0 0.02,-0.01 0.02,-0.01 0.01,0 0.01,-0.01 0.02,-0.01 0,-0.01 0,-0.01 0,-0.02 0,-0.01 0,-0.02 0,-0.02 -0.01,-0.01 -0.01,-0.01 -0.02,-0.01 0,-0.01 -0.01,-0.01 -0.02,-0.01zm0.63 0.39l0 0 -0.01 0 0.12 0.21 0.9 0.52c0.17,0.1 0.23,0.32 0.13,0.49 -0.09,0.16 -0.31,0.22 -0.48,0.13l-0.46 -0.27 0 0.53c0,0.19 -0.16,0.35 -0.35,0.35 -0.2,0 -0.36,-0.15 -0.36,-0.35l0 -1.05 -0.12 -0.2 -0.11 0.2 0 1.05c0,0.2 -0.16,0.35 -0.36,0.35 -0.19,0 -0.35,-0.15 -0.35,-0.35l0 -0.53 -0.46 0.27c-0.17,0.09 -0.39,0.03 -0.49,-0.13 -0.09,-0.17 -0.03,-0.39 0.13,-0.49l0.91 -0.52 0.12 -0.21 -0.24 0 -0.9 0.53c-0.17,0.1 -0.39,0.04 -0.49,-0.13 -0.1,-0.17 -0.04,-0.39 0.13,-0.49l0.46 -0.26 -0.46 -0.27c-0.17,-0.09 -0.23,-0.31 -0.13,-0.48 0.1,-0.17 0.32,-0.23 0.49,-0.13l0.9 0.52 0.24 0 -0.12 -0.2 -0.91 -0.52c-0.16,-0.1 -0.22,-0.32 -0.13,-0.49 0.1,-0.17 0.32,-0.23 0.49,-0.13l0.46 0.27 0 -0.53c0,-0.2 0.16,-0.36 0.35,-0.36 0.2,0 0.36,0.16 0.36,0.36l0 1.05 0.11 0.19 0 0 0 0 0 0.01 0.01 -0.01c0.26,0 0.49,0.15 0.61,0.36l0 0 0.01 0c0.06,0.11 0.09,0.23 0.09,0.36 0,0.13 -0.03,0.25 -0.09,0.35z"/>
   <path class="fil4" d="M4.77 4.68c0.25,-0.14 0.57,-0.05 0.71,0.2 0.15,0.24 0.06,0.56 -0.19,0.71 -0.25,0.14 -0.57,0.06 -0.71,-0.19 -0.14,-0.25 -0.06,-0.57 0.19,-0.72z"/>
  </g>
 </g>
</svg>
