<?xml version="1.0" encoding="UTF-8"?><svg id="a" xmlns="http://www.w3.org/2000/svg" xmlns:xlink="http://www.w3.org/1999/xlink" viewBox="0 0 150 150"><defs><style>.g,.h{fill-rule:evenodd;}.g,.i{fill:#e20613;}.h{fill:#3c3c3b;stroke:#3c3c3b;stroke-miterlimit:22.93;stroke-width:.22px;}.j{fill:url(#f);}.k{fill:url(#d);}.l{fill:url(#e);}</style><linearGradient id="d" x1="-447.42" y1="599.74" x2="-442.65" y2="594.35" gradientTransform="translate(12668.07 16969.96) scale(28.3 -28.3)" gradientUnits="userSpaceOnUse"><stop offset="0" stop-color="#f1f3f3"/><stop offset="1" stop-color="#fcfafc"/></linearGradient><linearGradient id="e" x1="-444.96" y1="599.27" x2="-444.96" y2="594.66" gradientTransform="translate(12668.07 16969.96) scale(28.3 -28.3)" gradientUnits="userSpaceOnUse"><stop offset="0" stop-color="#f1f3f3"/><stop offset="1" stop-color="#e7e9e9"/></linearGradient><linearGradient id="f" x1="-447.05" y1="599.31" x2="-443" y2="594.74" gradientTransform="translate(12668.07 16969.96) scale(28.3 -28.3)" gradientUnits="userSpaceOnUse"><stop offset="0" stop-color="#f1f3f3"/><stop offset="1" stop-color="#fefefe"/></linearGradient></defs><g id="b"><g id="c"><path class="k" d="M150,75c0,41.32-33.68,75-75,75S0,116.32,0,75,33.68,0,75,0s75,33.68,75,75Z"/><path class="l" d="M75,140.09c-35.94,0-65.38-29.15-65.38-65.09S39.06,9.62,75,9.62s65.09,29.43,65.09,65.38-29.15,65.09-65.09,65.09Zm0-126.79h0c-33.96,0-61.7,27.74-61.7,61.7s27.74,61.7,61.7,61.7,61.7-27.74,61.7-61.7S108.96,13.3,75,13.3Z"/><path class="j" d="M138.4,75c0,35.09-28.3,63.4-63.4,63.4S11.6,110.09,11.6,75,39.91,11.6,75,11.6s63.4,28.3,63.4,63.4Z"/></g></g><g><path class="h" d="M61.76,80.35h2.6v17.31h-2.87v-12.41l-6.01,7.61h-.62l-5.98-7.59v12.39h-2.89v-17.31h2.62l6.58,8.38,6.58-8.38h0Zm10.35,14.66h10.01v2.65h-12.88v-17.31h12.73v2.62h-9.86v4.62h9.44v2.57h-9.44v4.85h0Zm31.61-.05v6.4h-2.84v-3.71h-13.57v3.71h-2.84v-6.4h1.68c.71-.68,1.24-1.41,1.61-2.21s.58-1.83,.64-3.08l.59-9.32h12.09v14.61h2.65Zm-12.51-4.82c-.12,1.99-.68,3.63-1.71,4.89h8.7v-11.99h-6.58l-.42,7.1h0Z"/><path class="h" d="M40.87,70.4l-1.58-3.58h-9.3l-1.58,3.58h-3.11l7.76-17.31h3.21l7.74,17.31h-3.14Zm-6.23-14.39l-3.54,8.18h7.07l-3.54-8.18h0Zm24.2-2.92h2.89v17.31h-2.89v-7.44h-9.02v7.44h-2.89v-17.31h2.89v7.17h9.02v-7.17h0Zm25.26,14.61v6.4h-2.84v-3.71h-13.57v3.71h-2.84v-6.4h1.68c.71-.68,1.24-1.41,1.61-2.21,.36-.8,.58-1.83,.64-3.08l.59-9.32h12.09v14.61h2.65Zm-12.51-4.82c-.12,1.99-.68,3.63-1.71,4.89h8.7v-11.99h-6.58l-.42,7.1h0Zm23.97-9.79c1.25,0,2.35,.25,3.29,.75,.94,.5,1.67,1.21,2.19,2.11,.52,.91,.78,1.96,.78,3.16s-.26,2.26-.78,3.16c-.52,.91-1.25,1.61-2.19,2.11-.94,.5-2.04,.75-3.29,.75h-5.17v5.24h-2.89v-17.31h8.06Zm-.15,9.44c1.07,0,1.93-.31,2.57-.93,.64-.62,.96-1.45,.96-2.48s-.32-1.84-.96-2.46c-.64-.62-1.5-.93-2.57-.93h-5.04v6.8h5.04Z"/><path class="g" d="M113.1,70.77c-1.76,0-3.32-.37-4.67-1.12-1.35-.75-2.4-1.81-3.14-3.18-.74-1.37-1.11-2.94-1.11-4.72s.37-3.35,1.11-4.72c.74-1.37,1.79-2.43,3.14-3.18,1.35-.75,2.91-1.12,4.67-1.12s3.3,.37,4.65,1.12c1.35,.75,2.4,1.81,3.14,3.18,.74,1.37,1.11,2.94,1.11,4.72s-.37,3.35-1.11,4.72c-.74,1.37-1.79,2.43-3.14,3.18-1.35,.75-2.9,1.12-4.65,1.12h0Zm0-2.67c1.17,0,2.21-.27,3.11-.8,.91-.54,1.61-1.28,2.11-2.24,.5-.96,.75-2.06,.75-3.31s-.25-2.36-.75-3.31c-.5-.96-1.21-1.7-2.11-2.24-.91-.54-1.94-.8-3.11-.8s-2.23,.27-3.14,.8c-.91,.54-1.61,1.28-2.11,2.24-.5,.96-.75,2.06-.75,3.31s.25,2.36,.75,3.31c.5,.96,1.21,1.7,2.11,2.24,.91,.54,1.95,.8,3.14,.8h0Z"/><polygon class="i" points="118.77 56.4 121.83 53.34 123.46 54.97 124.42 48.36 117.81 49.32 119.44 50.95 116.38 54.01 118.77 56.4 118.77 56.4"/></g></svg>