<?xml version="1.0" encoding="UTF-8"?>
<!DOCTYPE svg PUBLIC "-//W3C//DTD SVG 1.1//EN" "http://www.w3.org/Graphics/SVG/1.1/DTD/svg11.dtd">
<!-- Creator: CorelDRAW 2021 (64-Bit Оценочная версия) -->
<svg xmlns="http://www.w3.org/2000/svg" xml:space="preserve" width="150px" height="150px" version="1.1" style="shape-rendering:geometricPrecision; text-rendering:geometricPrecision; image-rendering:optimizeQuality; fill-rule:evenodd; clip-rule:evenodd"
viewBox="0 0 17.79 17.79"
 xmlns:xlink="http://www.w3.org/1999/xlink"
 xmlns:xodm="http://www.corel.com/coreldraw/odm/2003">
 <defs>
  <style type="text/css">
   <![CDATA[
    .fil4 {fill:#F08CA3}
    .fil5 {fill:#F4B6D3}
    .fil6 {fill:#9AB1D4}
    .fil3 {fill:#708DC7}
    .fil1 {fill:url(#id0);fill-rule:nonzero}
    .fil0 {fill:url(#id1);fill-rule:nonzero}
    .fil2 {fill:url(#id2);fill-rule:nonzero}
   ]]>
  </style>
  <linearGradient id="id0" gradientUnits="userSpaceOnUse" x1="8.9" y1="1.15" x2="8.9" y2="16.64">
   <stop offset="0" style="stop-opacity:1; stop-color:#F1F3F3"/>
   <stop offset="1" style="stop-opacity:1; stop-color:#E7E9E9"/>
  </linearGradient>
  <linearGradient id="id1" gradientUnits="userSpaceOnUse" x1="0.63" y1="-0.44" x2="16.67" y2="17.68">
   <stop offset="0" style="stop-opacity:1; stop-color:#F1F3F3"/>
   <stop offset="1" style="stop-opacity:1; stop-color:#FEFEFE"/>
  </linearGradient>
  <linearGradient id="id2" gradientUnits="userSpaceOnUse" xlink:href="#id1" x1="1.9" y1="0.99" x2="15.48" y2="16.33">
  </linearGradient>
 </defs>
 <g id="РЎР_x00bb_РѕР_x2116__x0020_1">
  <metadata id="CorelCorpID_0Corel-Layer"/>
  <g id="_2367590557968">
   <path class="fil0" d="M17.79 8.9c0,4.91 -3.98,8.89 -8.89,8.89 -4.92,0 -8.9,-3.98 -8.9,-8.89 0,-4.92 3.98,-8.9 8.9,-8.9 4.91,0 8.89,3.98 8.89,8.9z"/>
   <path class="fil1" d="M8.9 16.64c-4.28,0 -7.75,-3.47 -7.75,-7.74 0,-4.28 3.47,-7.75 7.75,-7.75 4.27,0 7.74,3.47 7.74,7.75 0,4.27 -3.47,7.74 -7.74,7.74zm0 -15.06l0 0c-4.04,0 -7.32,3.28 -7.32,7.32 0,4.03 3.28,7.32 7.32,7.32 4.03,0 7.32,-3.29 7.32,-7.32 0,-4.04 -3.29,-7.32 -7.32,-7.32z"/>
   <path class="fil2" d="M16.43 8.9c0,4.16 -3.37,7.53 -7.53,7.53 -4.17,0 -7.54,-3.37 -7.54,-7.53 0,-4.17 3.37,-7.54 7.54,-7.54 4.16,0 7.53,3.37 7.53,7.54z"/>
   <g>
    <path class="fil3" d="M5.39 10.05c-0.95,0.64 -2.31,-0.22 -2.48,-1.44 -0.17,-1.22 0.45,-1.92 1.2,-2.04 0.74,-0.12 1.2,0.23 1.21,0.8 0,0.42 0.16,0.42 0.4,0.7 0.53,0.63 0.4,1.49 -0.33,1.98zm-1.05 -1.36l0 0c0,0 -0.03,-0.23 0.11,-0.28 0.13,-0.05 0.37,0.05 0.45,0.19 0.08,0.15 0.04,0.31 -0.18,0.39 -0.23,0.09 -0.35,-0.03 -0.38,-0.3zm-0.07 -1.1l0 0c0,0 0.01,-0.17 0.11,-0.22 0.1,-0.04 0.27,0.05 0.31,0.16 0.03,0.1 -0.02,0.23 -0.19,0.29 -0.17,0.07 -0.25,-0.03 -0.23,-0.23z"/>
    <path class="fil4" d="M7.1 9.4c0,0 -0.24,0.39 -0.87,0.37 -0.63,-0.02 -0.82,-0.69 -0.56,-1.38 0.26,-0.69 0.66,-1.92 1.46,-2.19 0.8,-0.27 1.26,0.36 1.49,0.88 0.23,0.53 0.6,1.81 0.6,1.81 0,0 0.18,0.64 -0.53,0.78 -0.71,0.14 -0.95,-0.4 -0.95,-0.4 0,0 -0.42,-0.26 -0.64,0.13zm0.08 -1.03l0 0c-0.07,0 -0.2,0.02 -0.2,-0.09 0,-0.09 0,-0.2 0.05,-0.28 0.04,-0.06 0.08,-0.05 0.12,-0.05 0.09,0 0.11,0.01 0.1,-0.1 0,-0.1 0.05,-0.21 0.23,-0.21 0.18,0 0.26,0.05 0.24,0.17 -0.01,0.03 -0.01,0.06 -0.01,0.1 0,0.05 0.04,0.05 0.09,0.05 0.14,0.02 0.17,0.08 0.16,0.19 -0.01,0.12 0.03,0.23 -0.15,0.23 -0.08,0 -0.12,0.01 -0.13,0.06 -0.02,0.17 0.01,0.24 -0.31,0.22 -0.15,-0.01 -0.15,-0.09 -0.14,-0.15 0,-0.07 0.04,-0.14 -0.05,-0.14z"/>
    <path class="fil5" d="M5.82 9.63c-0.29,-0.24 -0.34,-0.74 -0.15,-1.24 0.03,-0.08 0.06,-0.17 0.1,-0.26 0.35,0.47 0.36,1.04 0.05,1.5z"/>
    <path class="fil3" d="M10.61 9.82c-1.15,0.26 -2.16,-0.98 -1.9,-2.16 0.27,-1.17 1.12,-1.6 1.89,-1.46 0.77,0.14 1.07,0.76 0.81,1.36 0.48,0.88 0.42,1.97 -0.8,2.26zm-0.45 -1.41l0 0c0.09,-0.37 0.52,-0.18 0.57,0.11 0.03,0.16 -0.09,0.32 -0.31,0.29 -0.23,-0.02 -0.32,-0.21 -0.26,-0.4zm0.23 -1.23l0 0c0,0 0.07,-0.15 0.19,-0.15 0.11,0 0.24,0.13 0.24,0.24 0,0.11 -0.09,0.21 -0.28,0.21 -0.2,0 -0.23,-0.11 -0.15,-0.3z"/>
    <path class="fil6" d="M8.77 7.46c0.21,0.6 0.45,1.43 0.45,1.43 0,0 0.06,0.23 -0.04,0.44 -0.39,-0.42 -0.61,-1.05 -0.47,-1.67 0.02,-0.07 0.04,-0.13 0.06,-0.2z"/>
    <path class="fil4" d="M11.77 9.89c-0.83,-0.44 -0.48,-0.95 -0.14,-1.5 0.11,-0.17 0.24,-0.39 0.13,-0.84 -0.1,-0.45 -0.14,-0.96 0.23,-1.13 0.37,-0.18 1.16,-0.21 1.21,0.37 0.05,0.57 0.01,0.86 0.35,0.83 0.16,-0.02 0.4,-0.04 0.67,-0.04 0.35,0 0.62,0.15 0.67,0.41 0.08,0.47 -0.08,1.05 -0.8,0.99 -0.71,-0.06 -0.82,0.09 -0.98,0.34 -0.27,0.46 -0.7,0.92 -1.34,0.57z"/>
    <path class="fil5" d="M11.67 8.32c0.06,0.44 -0.04,0.86 -0.36,1.15 -0.16,-0.33 0.08,-0.7 0.32,-1.08 0.02,-0.02 0.03,-0.04 0.04,-0.07z"/>
    <path class="fil3" d="M7.97 10.91c0,0 0.7,-0.09 1.56,-0.03 -0.03,-0.09 -0.07,-0.16 -0.13,-0.23 -0.18,-0.23 -0.5,-0.3 -0.79,-0.26 -0.73,0.1 -0.91,0.99 -0.91,0.99l-0.23 -0.03c0,0 0.22,-1.06 1.13,-1.19 0.37,-0.05 0.72,0.05 0.94,0.34 0.09,0.11 0.16,0.25 0.2,0.39 0.13,0.02 0.26,0.03 0.39,0.05l-0.14 0.21c-0.07,-0.01 -0.14,-0.02 -0.21,-0.03 0,0.1 0,0.19 -0.02,0.29l-0.18 -0.02c0.02,-0.1 0.02,-0.19 0.01,-0.29 -0.91,-0.09 -1.61,-0.01 -1.62,-0.01l0 -0.18z"/>
    <path class="fil3" d="M5.62 10.33c0,0 0.06,0.51 -0.02,1.01 0.98,-0.28 1.76,-0.21 1.76,-0.21l-0.04 0.23c-0.01,0 -0.86,-0.11 -1.87,0.23l-0.04 -0.11 -0.07 -0.01c0.13,-0.53 -0.02,-1.05 -0.02,-1.05l0.3 -0.09z"/>
    <path class="fil3" d="M10.79 10.23c0,0 -0.14,0.57 -0.34,1 0.93,-0.01 1.6,0.24 1.6,0.24l-0.09 0.18c0,0 -0.72,-0.3 -1.7,-0.24l-0.1 -0.05 0.04 -0.09c0.24,-0.43 0.27,-0.89 0.27,-0.89l0.32 -0.15z"/>
    <path class="fil3" d="M11.84 11.02l0.03 -0.11c-0.56,-0.23 -0.41,-0.28 -0.98,-0.32l0.01 0.14c0.53,0.03 0.72,0.16 0.94,0.29z"/>
    <path class="fil3" d="M11.73 11.42c0.71,-0.09 -0.09,-0.72 -0.83,-0.69l0.09 -0.12c0.73,0.03 1.57,0.49 0.98,1.02l-0.24 -0.21z"/>
    <path class="fil3" d="M10.68 10.49l-0.21 -0.11c0.51,-0.77 1.56,-0.23 1.33,0.5l-0.12 -0.02c0.15,-0.44 -0.4,-0.99 -1,-0.37z"/>
   </g>
  </g>
 </g>
</svg>
