<?xml version="1.0" encoding="UTF-8"?>
<!DOCTYPE svg PUBLIC "-//W3C//DTD SVG 1.1//EN" "http://www.w3.org/Graphics/SVG/1.1/DTD/svg11.dtd">
<!-- Creator: CorelDRAW 2021 (64-Bit Оценочная версия) -->
<svg xmlns="http://www.w3.org/2000/svg" xml:space="preserve" width="150px" height="150px" version="1.1" style="shape-rendering:geometricPrecision; text-rendering:geometricPrecision; image-rendering:optimizeQuality; fill-rule:evenodd; clip-rule:evenodd"
viewBox="0 0 5.3 5.3"
 xmlns:xlink="http://www.w3.org/1999/xlink"
 xmlns:xodm="http://www.corel.com/coreldraw/odm/2003">
 <defs>
  <style type="text/css">
   <![CDATA[
    .fil4 {fill:#E32027}
    .fil3 {fill:#5B5B5B;fill-rule:nonzero}
    .fil1 {fill:url(#id0);fill-rule:nonzero}
    .fil2 {fill:url(#id1);fill-rule:nonzero}
    .fil0 {fill:url(#id2);fill-rule:nonzero}
   ]]>
  </style>
  <linearGradient id="id0" gradientUnits="userSpaceOnUse" x1="2.65" y1="0.34" x2="2.65" y2="4.95">
   <stop offset="0" style="stop-opacity:1; stop-color:#F1F3F3"/>
   <stop offset="1" style="stop-opacity:1; stop-color:#E7E9E9"/>
  </linearGradient>
  <linearGradient id="id1" gradientUnits="userSpaceOnUse" x1="0.56" y1="0.29" x2="4.61" y2="4.86">
   <stop offset="0" style="stop-opacity:1; stop-color:#F1F3F3"/>
   <stop offset="1" style="stop-opacity:1; stop-color:#FEFEFE"/>
  </linearGradient>
  <linearGradient id="id2" gradientUnits="userSpaceOnUse" x1="0.19" y1="-0.13" x2="4.96" y2="5.26">
   <stop offset="0" style="stop-opacity:1; stop-color:#F1F3F3"/>
   <stop offset="1" style="stop-opacity:1; stop-color:#FCFAFC"/>
  </linearGradient>
 </defs>
 <g id="РЎР_x00bb_РѕР_x2116__x0020_1">
  <metadata id="CorelCorpID_0Corel-Layer"/>
  <g id="_2367374636176">
   <path class="fil0" d="M5.3 2.65c0,1.46 -1.19,2.65 -2.65,2.65 -1.46,0 -2.65,-1.19 -2.65,-2.65 0,-1.46 1.19,-2.65 2.65,-2.65 1.46,0 2.65,1.19 2.65,2.65z"/>
   <path class="fil1" d="M2.65 4.95c-1.27,0 -2.31,-1.03 -2.31,-2.3 0,-1.27 1.04,-2.31 2.31,-2.31 1.27,0 2.3,1.04 2.3,2.31 0,1.27 -1.03,2.3 -2.3,2.3zm0 -4.48l0 0c-1.2,0 -2.18,0.98 -2.18,2.18 0,1.2 0.98,2.18 2.18,2.18 1.2,0 2.18,-0.98 2.18,-2.18 0,-1.2 -0.98,-2.18 -2.18,-2.18z"/>
   <path class="fil2" d="M4.89 2.65c0,1.24 -1,2.24 -2.24,2.24 -1.24,0 -2.24,-1 -2.24,-2.24 0,-1.24 1,-2.24 2.24,-2.24 1.24,0 2.24,1 2.24,2.24z"/>
   <path class="fil3" d="M1.02 3.24l-0.05 0 0 0.12 -0.05 0 0 -0.27 0.05 0 0 0.11 0.05 0 0.08 -0.11 0.05 0 -0.09 0.13 0.09 0.14 -0.05 0 -0.08 -0.12zm0.3 0.12c-0.03,0 -0.05,-0.01 -0.07,-0.02 -0.02,-0.01 -0.04,-0.03 -0.05,-0.05 -0.02,-0.02 -0.02,-0.04 -0.02,-0.07 0,-0.03 0,-0.05 0.02,-0.07 0.01,-0.02 0.03,-0.04 0.05,-0.05 0.02,-0.01 0.04,-0.02 0.07,-0.02 0.03,0 0.05,0.01 0.08,0.02 0.02,0.01 0.04,0.03 0.05,0.05 0.01,0.02 0.02,0.04 0.02,0.07 0,0.03 -0.01,0.05 -0.02,0.07 -0.01,0.02 -0.03,0.04 -0.05,0.05 -0.03,0.01 -0.05,0.02 -0.08,0.02zm0 -0.04c0.02,0 0.04,-0.01 0.05,-0.02 0.01,0 0.03,-0.02 0.03,-0.03 0.01,-0.02 0.02,-0.03 0.02,-0.05 0,-0.02 -0.01,-0.03 -0.02,-0.05 0,-0.01 -0.02,-0.02 -0.03,-0.03 -0.01,-0.01 -0.03,-0.01 -0.05,-0.01 -0.02,0 -0.03,0 -0.05,0.01 -0.01,0.01 -0.02,0.02 -0.03,0.03 -0.01,0.02 -0.01,0.03 -0.01,0.05 0,0.02 0,0.03 0.01,0.05 0.01,0.01 0.02,0.03 0.03,0.03 0.02,0.01 0.03,0.02 0.05,0.02zm0.45 0.04l0 -0.18 -0.09 0.14 -0.02 0 -0.09 -0.14 0 0.18 -0.05 0 0 -0.27 0.04 0 0.11 0.17 0.11 -0.17 0.04 0 0 0.27 -0.05 0zm0.36 -0.27l0 0.27 -0.05 0 0 -0.23 -0.14 0 0 0.23 -0.05 0 0 -0.27 0.24 0zm0.2 0.09c0.03,0 0.06,0 0.07,0.02 0.02,0.01 0.03,0.04 0.03,0.06 0,0.03 -0.01,0.06 -0.03,0.07 -0.02,0.02 -0.04,0.03 -0.08,0.03l-0.11 0 0 -0.27 0.05 0 0 0.09 0.07 0zm-0.01 0.14c0.02,0 0.03,-0.01 0.04,-0.02 0.02,-0.01 0.02,-0.02 0.02,-0.04 0,-0.03 -0.02,-0.04 -0.06,-0.04l-0.06 0 0 0.1 0.06 0zm0.39 -0.24c0.03,0 0.05,0.01 0.07,0.02 0.02,0.01 0.04,0.03 0.05,0.05 0.02,0.02 0.02,0.04 0.02,0.07 0,0.03 0,0.05 -0.02,0.07 -0.01,0.02 -0.03,0.04 -0.05,0.05 -0.02,0.01 -0.04,0.02 -0.07,0.02 -0.02,0 -0.04,-0.01 -0.06,-0.02 -0.02,-0.01 -0.04,-0.02 -0.05,-0.04 -0.02,-0.02 -0.02,-0.04 -0.03,-0.06l-0.04 0 0 0.12 -0.05 0 0 -0.27 0.05 0 0 0.11 0.04 0c0.01,-0.03 0.02,-0.05 0.03,-0.06 0.01,-0.02 0.03,-0.03 0.05,-0.04 0.02,-0.01 0.04,-0.02 0.06,-0.02zm0 0.24c0.02,0 0.03,-0.01 0.05,-0.02 0.01,0 0.02,-0.02 0.03,-0.03 0.01,-0.01 0.01,-0.03 0.01,-0.05 0,-0.02 0,-0.03 -0.01,-0.05 -0.01,-0.01 -0.02,-0.02 -0.03,-0.03 -0.02,-0.01 -0.03,-0.01 -0.05,-0.01 -0.01,0 -0.03,0 -0.04,0.01 -0.02,0.01 -0.03,0.02 -0.04,0.03 0,0.02 -0.01,0.03 -0.01,0.05 0,0.02 0.01,0.04 0.01,0.05 0.01,0.01 0.02,0.03 0.04,0.03 0.01,0.01 0.03,0.02 0.04,0.02zm0.39 -0.19l-0.09 0 0 0.23 -0.05 0 0 -0.23 -0.09 0 0 -0.04 0.23 0 0 0.04zm0.24 0.18l0 0.05 -0.2 0 0 -0.27 0.2 0 0 0.04 -0.15 0 0 0.07 0.13 0 0 0.04 -0.13 0 0 0.07 0.15 0zm0.17 -0.22c0.02,0 0.04,0 0.06,0.01 0.02,0.01 0.03,0.02 0.04,0.03 0.01,0.02 0.01,0.03 0.01,0.05 0,0.02 0,0.04 -0.01,0.05 -0.01,0.02 -0.02,0.03 -0.04,0.04 -0.02,0 -0.04,0.01 -0.06,0.01l-0.06 0 0 0.08 -0.05 0 0 -0.27 0.11 0zm0 0.15c0.02,0 0.04,-0.01 0.05,-0.02 0.01,-0.01 0.01,-0.02 0.01,-0.04 0,-0.02 0,-0.03 -0.01,-0.04 -0.01,-0.01 -0.03,-0.01 -0.05,-0.01l-0.06 0 0 0.11 0.06 0zm0.4 -0.15l0 0.27 -0.05 0 0 -0.12 -0.14 0 0 0.12 -0.05 0 0 -0.27 0.05 0 0 0.11 0.14 0 0 -0.11 0.05 0zm0.25 0.2l-0.13 0 -0.03 0.07 -0.05 0 0.12 -0.27 0.05 0 0.12 0.27 -0.05 0 -0.03 -0.07zm-0.01 -0.04l-0.05 -0.11 -0.05 0.11 0.1 0zm0.33 -0.16l0 0.27 -0.05 0 0 -0.08 -0.07 0 0 0 -0.05 0.08 -0.06 0 0.06 -0.09c-0.02,0 -0.03,-0.02 -0.04,-0.03 -0.01,-0.02 -0.02,-0.03 -0.02,-0.05 0,-0.03 0.01,-0.04 0.02,-0.06 0,-0.01 0.02,-0.02 0.03,-0.03 0.02,-0.01 0.04,-0.01 0.06,-0.01l0.12 0zm-0.11 0.04c-0.02,0 -0.04,0 -0.05,0.01 -0.01,0.01 -0.02,0.03 -0.02,0.04 0,0.02 0.01,0.04 0.02,0.05 0.01,0 0.02,0.01 0.04,0.01l0.07 0 0 -0.11 -0.06 0zm-2.93 0.42l-0.09 0 0 0.23 -0.05 0 0 -0.23 -0.09 0 0 -0.04 0.23 0 0 0.04zm0.16 0.23c-0.03,0 -0.05,0 -0.07,-0.01 -0.03,-0.02 -0.04,-0.03 -0.06,-0.05 -0.01,-0.03 -0.01,-0.05 -0.01,-0.08 0,-0.02 0,-0.05 0.01,-0.07 0.02,-0.02 0.03,-0.03 0.06,-0.05 0.02,-0.01 0.04,-0.01 0.07,-0.01 0.03,0 0.05,0 0.07,0.01 0.03,0.02 0.04,0.03 0.06,0.05 0.01,0.02 0.01,0.05 0.01,0.07 0,0.03 0,0.05 -0.01,0.08 -0.02,0.02 -0.03,0.03 -0.06,0.05 -0.02,0.01 -0.04,0.01 -0.07,0.01zm0 -0.04c0.02,0 0.03,0 0.05,-0.01 0.01,-0.01 0.02,-0.02 0.03,-0.04 0.01,-0.01 0.01,-0.03 0.01,-0.05 0,-0.01 0,-0.03 -0.01,-0.04 -0.01,-0.02 -0.02,-0.03 -0.03,-0.04 -0.02,-0.01 -0.03,-0.01 -0.05,-0.01 -0.02,0 -0.03,0 -0.05,0.01 -0.01,0.01 -0.02,0.02 -0.03,0.04 -0.01,0.01 -0.01,0.03 -0.01,0.04 0,0.02 0,0.04 0.01,0.05 0.01,0.02 0.02,0.03 0.03,0.04 0.02,0.01 0.03,0.01 0.05,0.01zm0.45 0.04l0 -0.18 -0.09 0.15 -0.02 0 -0.09 -0.15 0 0.18 -0.05 0 0 -0.27 0.04 0 0.11 0.18 0.1 -0.18 0.04 0 0 0.27 -0.04 0zm0.24 0c-0.02,0 -0.05,0 -0.07,-0.01 -0.02,-0.02 -0.04,-0.03 -0.05,-0.05 -0.01,-0.03 -0.02,-0.05 -0.02,-0.08 0,-0.02 0.01,-0.05 0.02,-0.07 0.01,-0.02 0.03,-0.03 0.05,-0.05 0.02,-0.01 0.05,-0.01 0.07,-0.01 0.03,0 0.06,0 0.08,0.01 0.02,0.02 0.04,0.03 0.05,0.05 0.01,0.02 0.02,0.05 0.02,0.07 0,0.03 -0.01,0.05 -0.02,0.08 -0.01,0.02 -0.03,0.03 -0.05,0.05 -0.02,0.01 -0.05,0.01 -0.08,0.01zm0 -0.04c0.02,0 0.04,0 0.05,-0.01 0.02,-0.01 0.03,-0.02 0.04,-0.04 0.01,-0.01 0.01,-0.03 0.01,-0.05 0,-0.01 0,-0.03 -0.01,-0.04 -0.01,-0.02 -0.02,-0.03 -0.04,-0.04 -0.01,-0.01 -0.03,-0.01 -0.05,-0.01 -0.01,0 -0.03,0 -0.04,0.01 -0.02,0.01 -0.03,0.02 -0.04,0.04 -0.01,0.01 -0.01,0.03 -0.01,0.04 0,0.02 0,0.04 0.01,0.05 0.01,0.02 0.02,0.03 0.04,0.04 0.01,0.01 0.03,0.01 0.04,0.01zm0.39 -0.19l-0.14 0 0 0.23 -0.04 0 0 -0.27 0.18 0 0 0.04zm0.15 -0.04c0.02,0 0.04,0 0.06,0.01 0.02,0.01 0.03,0.02 0.04,0.03 0.01,0.02 0.02,0.04 0.02,0.06 0,0.02 -0.01,0.03 -0.02,0.05 -0.01,0.01 -0.02,0.02 -0.04,0.03 -0.02,0.01 -0.04,0.01 -0.06,0.01l-0.06 0 0 0.08 -0.05 0 0 -0.27 0.11 0zm0 0.15c0.02,0 0.04,-0.01 0.05,-0.01 0.01,-0.01 0.01,-0.03 0.01,-0.04 0,-0.02 0,-0.03 -0.01,-0.04 -0.01,-0.01 -0.03,-0.02 -0.05,-0.02l-0.06 0 0 0.11 0.06 0zm0.33 0.06l-0.14 0 -0.02 0.06 -0.06 0 0.13 -0.27 0.04 0 0.13 0.27 -0.06 0 -0.02 -0.06zm-0.02 -0.04l-0.05 -0.12 -0.05 0.12 0.1 0zm0.44 -0.04c0,0.04 -0.01,0.07 -0.04,0.09 -0.02,0.02 -0.06,0.03 -0.1,0.03l0 0.03 -0.05 0 0 -0.03c-0.04,0 -0.08,-0.01 -0.1,-0.03 -0.03,-0.02 -0.04,-0.05 -0.04,-0.09 0,-0.03 0.01,-0.06 0.04,-0.08 0.02,-0.02 0.06,-0.03 0.1,-0.03l0 -0.03 0.05 0 0 0.03c0.04,0 0.08,0.01 0.1,0.03 0.03,0.02 0.04,0.05 0.04,0.08zm-0.14 0.08c0.03,0 0.05,-0.01 0.07,-0.02 0.01,-0.01 0.02,-0.03 0.02,-0.06 0,-0.02 -0.01,-0.04 -0.02,-0.05 -0.02,-0.01 -0.04,-0.02 -0.07,-0.02l0 0.15zm-0.14 -0.08c0,0.03 0.01,0.05 0.02,0.06 0.02,0.01 0.04,0.02 0.07,0.02l0 -0.15c-0.06,0 -0.09,0.03 -0.09,0.07zm0.33 -0.13l0.05 0 0 0.19 0.15 -0.19 0.04 0 0 0.27 -0.05 0 0 -0.19 -0.14 0.19 -0.05 0 0 -0.27zm0.53 0l0 0.27 -0.05 0 0 -0.08 -0.07 0 -0.01 0 -0.05 0.08 -0.05 0 0.06 -0.08c-0.02,-0.01 -0.03,-0.02 -0.04,-0.04 -0.01,-0.01 -0.02,-0.03 -0.02,-0.05 0,-0.02 0.01,-0.04 0.01,-0.05 0.01,-0.02 0.03,-0.03 0.04,-0.04 0.02,-0.01 0.04,-0.01 0.06,-0.01l0.12 0zm-0.12 0.04c-0.02,0 -0.03,0.01 -0.04,0.02 -0.01,0.01 -0.02,0.02 -0.02,0.04 0,0.02 0.01,0.03 0.02,0.04 0.01,0.01 0.02,0.01 0.04,0.01l0.07 0 0 -0.11 -0.07 0z"/>
   <g>
    <g>
     <g>
      <path class="fil4" d="M1.18 2.76c-0.18,0 -0.3,-0.07 -0.35,-0.22 -0.02,-0.06 -0.03,-0.12 -0.03,-0.18 0,-0.1 0,-0.3 0,-0.41 0,-0.06 0.01,-0.12 0.03,-0.17 0.05,-0.15 0.17,-0.23 0.35,-0.23 0.36,0 0.72,0 1.08,0 0.18,0 0.3,0.08 0.35,0.23 0.01,0.02 0.02,0.06 0.03,0.09l-0.29 0c-0.01,-0.07 -0.06,-0.11 -0.15,-0.11 -0.32,0 -0.64,0 -0.95,0 -0.16,0 -0.19,0.13 -0.19,0.22 0,0.08 0,0.27 0,0.36 0,0.09 0.03,0.22 0.19,0.22 0.31,0 0.63,-0.01 0.95,0 0.09,0 0.13,-0.05 0.15,-0.1l0.29 0c-0.04,0.19 -0.17,0.3 -0.38,0.3 -0.36,0 -0.72,0 -1.08,0z"/>
      <path class="fil4" d="M3.05 2.76c-0.18,0 -0.3,-0.08 -0.35,-0.23 -0.02,-0.05 -0.03,-0.11 -0.03,-0.17l0 -0.81 0.26 0 0 0.82c0,0.06 0.02,0.11 0.06,0.14 0.03,0.03 0.07,0.04 0.13,0.04l1.37 0 0 0.21 -1.44 0z"/>
     </g>
    </g>
   </g>
  </g>
 </g>
</svg>
