<?xml version="1.0" encoding="UTF-8"?>
<!DOCTYPE svg PUBLIC "-//W3C//DTD SVG 1.1//EN" "http://www.w3.org/Graphics/SVG/1.1/DTD/svg11.dtd">
<!-- Creator: CorelDRAW 2021 (64-Bit Оценочная версия) -->
<svg xmlns="http://www.w3.org/2000/svg" xml:space="preserve" width="150px" height="150px" version="1.1" style="shape-rendering:geometricPrecision; text-rendering:geometricPrecision; image-rendering:optimizeQuality; fill-rule:evenodd; clip-rule:evenodd"
viewBox="0 0 8.33 8.33"
 xmlns:xlink="http://www.w3.org/1999/xlink"
 xmlns:xodm="http://www.corel.com/coreldraw/odm/2003">
 <defs>
  <style type="text/css">
   <![CDATA[
    .fil6 {fill:#9AC446;fill-rule:nonzero}
    .fil3 {fill:#99C447;fill-rule:nonzero}
    .fil7 {fill:#99C445;fill-rule:nonzero}
    .fil5 {fill:#2C2C2A;fill-rule:nonzero}
    .fil4 {fill:black;fill-rule:nonzero}
    .fil1 {fill:url(#id0);fill-rule:nonzero}
    .fil0 {fill:url(#id1);fill-rule:nonzero}
    .fil2 {fill:url(#id2);fill-rule:nonzero}
   ]]>
  </style>
  <linearGradient id="id0" gradientUnits="userSpaceOnUse" x1="4.17" y1="0.54" x2="4.17" y2="7.8">
   <stop offset="0" style="stop-opacity:1; stop-color:#F1F3F3"/>
   <stop offset="1" style="stop-opacity:1; stop-color:#E7E9E9"/>
  </linearGradient>
  <linearGradient id="id1" gradientUnits="userSpaceOnUse" x1="0.3" y1="-0.21" x2="7.81" y2="8.28">
   <stop offset="0" style="stop-opacity:1; stop-color:#F1F3F3"/>
   <stop offset="1" style="stop-opacity:1; stop-color:#FEFEFE"/>
  </linearGradient>
  <linearGradient id="id2" gradientUnits="userSpaceOnUse" xlink:href="#id1" x1="0.89" y1="0.46" x2="7.25" y2="7.65">
  </linearGradient>
 </defs>
 <g id="РЎР_x00bb_РѕР_x2116__x0020_1">
  <metadata id="CorelCorpID_0Corel-Layer"/>
  <g id="_2367374634304">
   <path class="fil0" d="M8.33 4.17c0,2.3 -1.86,4.16 -4.16,4.16 -2.3,0 -4.17,-1.86 -4.17,-4.16 0,-2.3 1.87,-4.17 4.17,-4.17 2.3,0 4.16,1.87 4.16,4.17z"/>
   <path class="fil1" d="M4.17 7.8c-2,0 -3.63,-1.63 -3.63,-3.63 0,-2 1.63,-3.63 3.63,-3.63 2,0 3.63,1.63 3.63,3.63 0,2 -1.63,3.63 -3.63,3.63zm0 -7.06l0 0c-1.89,0 -3.43,1.54 -3.43,3.43 0,1.89 1.54,3.43 3.43,3.43 1.89,0 3.43,-1.54 3.43,-3.43 0,-1.89 -1.54,-3.43 -3.43,-3.43z"/>
   <path class="fil2" d="M7.7 4.17c0,1.95 -1.58,3.53 -3.53,3.53 -1.95,0 -3.53,-1.58 -3.53,-3.53 0,-1.95 1.58,-3.53 3.53,-3.53 1.95,0 3.53,1.58 3.53,3.53z"/>
   <g>
    <g>
     <g>
      <path class="fil3" d="M1.75 5.28c-0.04,0 -0.06,-0.03 -0.06,-0.07l0 -2.11c0,-0.04 0.02,-0.07 0.06,-0.07 0.03,0 0.06,0.03 0.06,0.07l0 2.11c0,0.04 -0.03,0.07 -0.06,0.07z"/>
     </g>
    </g>
    <g>
     <path class="fil4" d="M5.14 4.53l-0.06 0c-0.04,0 -0.06,-0.02 -0.07,-0.03 0,0 0,-0.01 0,-0.01l-0.52 -0.66 0 0.61c0,0.06 -0.03,0.09 -0.09,0.09l-0.08 0c-0.06,0 -0.09,-0.03 -0.09,-0.09l0 -1.01c0,-0.06 0.03,-0.09 0.09,-0.09l0.06 0c0.04,0 0.06,0.02 0.07,0.04 0,0 0.01,0 0.01,0l0.51 0.66 0 -0.61c0,-0.06 0.04,-0.09 0.09,-0.09l0.08 0c0.06,0 0.09,0.03 0.09,0.09l0 1.01c0,0.06 -0.03,0.09 -0.09,0.09zm-0.08 -0.37l0 0 0 0 0 0z"/>
    </g>
    <g>
     <path class="fil4" d="M5.87 4.53l-0.08 0c-0.06,0 -0.09,-0.03 -0.09,-0.09l0 -0.86 -0.24 0c-0.06,0 -0.09,-0.03 -0.09,-0.09l0 -0.06c0,-0.06 0.03,-0.09 0.09,-0.09l0.73 0c0.06,0 0.09,0.03 0.09,0.09l0 0.06c0,0.06 -0.03,0.09 -0.09,0.09l-0.23 0 0 0.86c0,0.06 -0.04,0.09 -0.09,0.09zm0.32 -1.07l0 0 0 0 0 0z"/>
    </g>
    <path class="fil5" d="M4.1 3.39l0 0.1c0,0.03 -0.03,0.06 -0.06,0.06l-0.58 0 0 0.25 0.53 0c0.03,0 0.06,0.03 0.06,0.05l0 0.1c0,0.04 -0.03,0.06 -0.06,0.06l-0.53 0 0 0.31 0.61 0c0.03,0 0.06,0.03 0.06,0.06l0 0.1c0,0.03 -0.03,0.06 -0.06,0.06l-0.8 0c-0.03,0 -0.06,-0.03 -0.06,-0.06l0 -1.09c0,-0.03 0.03,-0.05 0.06,-0.05l0.77 0c0.03,0 0.06,0.02 0.06,0.05z"/>
    <path class="fil5" d="M2.1 4.46l0 -1.05c0,-0.04 0.03,-0.07 0.07,-0.07l0.46 0c0.18,0 0.31,0.06 0.4,0.2 0.06,0.09 0.09,0.22 0.09,0.37 0,0.16 -0.04,0.3 -0.1,0.41 -0.09,0.14 -0.22,0.22 -0.4,0.22l-0.45 0c-0.04,0 -0.07,-0.04 -0.07,-0.08zm0.25 -0.92l0 0 0 0.79 0.24 0c0.09,0 0.16,-0.04 0.21,-0.13 0.04,-0.07 0.06,-0.16 0.06,-0.27 0,-0.16 -0.03,-0.27 -0.1,-0.33 -0.04,-0.04 -0.1,-0.06 -0.17,-0.06l-0.24 0z"/>
    <g>
     <g>
      <path class="fil6" d="M5.48 5.07c-0.01,0 -0.01,0 -0.02,0 -0.04,0.01 -0.08,0.03 -0.12,0.04 -0.08,0.03 -0.17,0.04 -0.25,0.05 -0.01,0 -0.03,0 -0.04,-0.01 -0.03,-0.01 0,-0.05 0.01,-0.07 0.04,-0.01 0.08,-0.02 0.12,-0.04 0.06,-0.02 0.13,-0.03 0.18,-0.07 0.02,-0.01 0.04,-0.03 0.04,-0.05 0,-0.05 -0.06,-0.05 -0.09,-0.05 -0.04,0.01 -0.11,0.03 -0.21,0.11 -0.04,0.03 -0.06,0.07 -0.1,0.08 -0.04,0.01 -0.07,0.02 -0.1,0.03 -0.03,0.02 -0.06,0.03 -0.1,0.04 -0.06,0.02 -0.13,0.03 -0.19,0.04 -0.01,0 -0.02,0 -0.03,0 -0.01,-0.01 -0.01,-0.02 0,-0.02 0.01,-0.04 0.05,-0.06 0.08,-0.08 0.04,-0.03 0.09,-0.06 0.12,-0.11 0.01,-0.01 0.01,-0.03 0,-0.04 -0.02,-0.04 -0.09,-0.03 -0.13,-0.02 -0.1,0.02 -0.2,0.06 -0.3,0.11 -0.04,0.01 -0.07,0.03 -0.11,0.05 0.04,-0.02 0.09,-0.08 0.09,-0.12 0,-0.02 -0.02,-0.04 -0.04,-0.04 -0.02,-0.01 -0.05,0 -0.08,0 -0.08,0.02 -0.15,0.06 -0.22,0.09 -0.08,0.03 -0.16,0.06 -0.23,0.08 -0.03,0.01 -0.05,0.02 -0.07,0.02 -0.05,0.02 -0.1,0.03 -0.16,0.05 -0.02,0 -0.15,0.04 -0.15,0.01 0,-0.05 0.06,-0.09 0.09,-0.11 0.05,-0.04 0.1,-0.07 0.15,-0.11 0.01,0 0.01,-0.01 0.01,-0.02l0 0c-0.01,-0.01 -0.02,-0.01 -0.03,-0.01 -0.15,0.07 -0.31,0.13 -0.47,0.18 -0.13,0.04 -0.27,0.07 -0.41,0.08 0,0 -0.01,0 -0.01,0 0,0 0,-0.01 0,-0.01 0,-0.01 0.01,-0.01 0.01,-0.02 0.05,-0.07 0.11,-0.12 0.16,-0.18 0.01,0 0.02,-0.01 0.03,-0.01 0.01,-0.01 0.03,-0.02 0.04,-0.02 0,0 0,0 0,0 0.05,-0.03 0.13,-0.07 0.17,-0.09 0.1,-0.06 0.21,-0.13 0.31,-0.19 0.06,-0.05 0.14,-0.09 0.2,-0.14 0.19,-0.14 0.37,-0.28 0.54,-0.44 0.05,-0.05 0.11,-0.11 0.15,-0.16 0.03,-0.03 0.05,-0.05 0.07,-0.08 0.01,-0.02 0.04,-0.05 0.04,-0.08 0,-0.03 -0.01,-0.06 -0.04,-0.07 -0.03,-0.02 -0.07,-0.01 -0.1,0 -0.08,0.03 -0.15,0.08 -0.22,0.13 -0.08,0.06 -0.15,0.11 -0.22,0.17l-0.3 0.28 -0.4 0.37c0,0 -0.32,0.31 -0.32,0.31 -0.01,0.01 -0.05,0.02 -0.07,0.03 -0.06,0.03 -0.13,0.05 -0.19,0.08 -0.02,0 -0.04,0.01 -0.06,0.02 -0.01,0 -0.03,0.01 -0.04,0.02 -0.01,0 -0.01,0.03 0,0.03 0.01,0 0.02,0 0.02,0 0.05,-0.02 0.1,-0.04 0.15,-0.06l0.12 -0.04c-0.04,0.04 -0.07,0.07 -0.09,0.12 -0.01,0.01 -0.01,0.02 -0.02,0.03 -0.01,0.07 0.15,0.04 0.19,0.03 0.2,-0.03 0.4,-0.09 0.58,-0.17 -0.03,0.03 -0.09,0.07 -0.09,0.12 0,0.03 0.01,0.05 0.04,0.06 0.01,0 0.03,0 0.04,0 0.11,-0.01 0.21,-0.04 0.31,-0.07 0.1,-0.03 0.2,-0.07 0.3,-0.11 0.04,-0.02 0.08,-0.04 0.12,-0.05 0.04,-0.02 0.08,-0.04 0.12,-0.03 0.01,0 0.01,0 0.02,0.01 0,0 0,0.01 0,0.01 -0.01,0.01 -0.01,0.02 -0.02,0.03 -0.03,0.04 -0.08,0.07 -0.12,0.1 -0.03,0.02 -0.06,0.05 -0.1,0.07 0,0 -0.04,0.02 -0.04,0.03 -0.01,0.01 0,0.03 0.01,0.03 0.12,-0.06 0.24,-0.12 0.36,-0.17 0.06,-0.03 0.11,-0.05 0.17,-0.07 0.03,-0.01 0.06,-0.02 0.09,-0.03 0.03,-0.01 0.06,-0.02 0.09,-0.01 0.01,0 0.02,0.01 0.01,0.02 0,0.01 -0.02,0.02 -0.03,0.02 -0.02,0.02 -0.03,0.03 -0.05,0.04 -0.05,0.04 -0.12,0.08 -0.12,0.15 0,0.02 0.01,0.04 0.07,0.04 0.06,0 0.13,-0.02 0.2,-0.03 0.07,-0.02 0.13,-0.05 0.2,-0.08 -0.02,0.03 -0.02,0.07 0.01,0.08 0.01,0.01 0.03,0.02 0.05,0.02 0.03,0 0.06,0 0.09,-0.01 0.07,-0.01 0.13,-0.01 0.19,-0.03 0.03,-0.01 0.14,-0.05 0.16,-0.06 0,-0.01 0,-0.01 0,-0.01 0.01,-0.01 -0.01,-0.02 -0.02,-0.02zm-0.35 -0.05l0 0c0.01,-0.02 0.03,-0.03 0.05,-0.04 0.04,-0.04 0.17,-0.09 0.17,-0.06 0,0.01 0,0.01 0,0.01 -0.07,0.04 -0.14,0.07 -0.22,0.09zm-2.15 -0.17l0 0c0.07,-0.07 0.15,-0.14 0.22,-0.2 0.15,-0.15 0.3,-0.29 0.45,-0.43 0.05,-0.05 0.11,-0.1 0.16,-0.14 0.05,-0.05 0.11,-0.1 0.16,-0.14 0.04,-0.03 0.07,-0.06 0.1,-0.08 0.06,-0.05 0.12,-0.1 0.19,-0.13 0.03,-0.01 0.13,-0.05 0.13,0.01 0,0.02 -0.03,0.06 -0.12,0.17 -0.05,0.05 -0.11,0.09 -0.16,0.14 -0.07,0.07 -0.14,0.14 -0.22,0.2 -0.17,0.13 -0.34,0.26 -0.52,0.38 -0.06,0.04 -0.13,0.08 -0.2,0.12 -0.03,0.01 -0.06,0.03 -0.09,0.05 -0.02,0.01 -0.03,0.02 -0.05,0.03 -0.01,0 -0.04,0.01 -0.05,0.02z"/>
      <path class="fil3" d="M4.02 5.23l-0.01 0c0,0 -0.01,-0.01 -0.02,-0.01 0,-0.01 0,-0.02 0,-0.03 0,-0.01 0.01,-0.02 0.04,-0.03 0,-0.01 0.01,-0.01 0.01,-0.01l0.03 -0.02c0.02,-0.02 0.04,-0.03 0.07,-0.05l0.02 -0.01c0.03,-0.03 0.07,-0.06 0.09,-0.09 0.01,-0.01 0.02,-0.01 0.02,-0.02 0,-0.01 0,-0.01 0,-0.01 0,0 -0.01,0 -0.01,0 -0.03,-0.01 -0.07,0.01 -0.1,0.02l-0.01 0c-0.03,0.01 -0.05,0.02 -0.08,0.04 -0.01,0 -0.03,0.01 -0.05,0.02 -0.09,0.04 -0.2,0.08 -0.3,0.11 -0.1,0.03 -0.2,0.06 -0.31,0.07 -0.01,0 -0.03,0 -0.05,0 -0.03,-0.01 -0.04,-0.04 -0.04,-0.07 0,-0.03 0.03,-0.06 0.05,-0.09 -0.16,0.07 -0.34,0.12 -0.53,0.15l-0.01 0c-0.07,0.02 -0.14,0.02 -0.17,0 -0.01,-0.01 -0.02,-0.03 -0.02,-0.04 0.01,-0.01 0.01,-0.02 0.02,-0.03l0 0c0.02,-0.04 0.04,-0.07 0.06,-0.1l-0.07 0.03 -0.06 0.02c-0.03,0.01 -0.06,0.03 -0.09,0.04 -0.01,0 -0.02,0 -0.03,0 -0.01,0 -0.01,-0.01 -0.02,-0.02 0,-0.01 0.01,-0.02 0.02,-0.03 0.01,-0.01 0.02,-0.01 0.03,-0.02l0.01 0c0.02,-0.01 0.04,-0.01 0.06,-0.02 0.06,-0.03 0.12,-0.05 0.18,-0.08 0.01,0 0.02,0 0.03,-0.01 0.02,0 0.04,-0.01 0.05,-0.02 0,0 0,0 0.31,-0.3l0.4 -0.38 0.3 -0.28c0.07,-0.05 0.14,-0.11 0.21,-0.16l0.01 -0.01c0.07,-0.05 0.14,-0.1 0.23,-0.12 0.04,-0.02 0.08,-0.03 0.11,-0.01 0.02,0.02 0.04,0.04 0.04,0.08 0,0.03 -0.02,0.06 -0.04,0.08l-0.01 0.01c-0.02,0.03 -0.04,0.05 -0.06,0.08 -0.05,0.05 -0.1,0.11 -0.15,0.16 -0.16,0.15 -0.34,0.29 -0.54,0.44 -0.06,0.04 -0.13,0.08 -0.19,0.12l-0.02 0.02c-0.1,0.06 -0.2,0.13 -0.3,0.18 -0.05,0.03 -0.13,0.07 -0.17,0.1 -0.02,0 -0.03,0.01 -0.04,0.02 -0.01,0 -0.01,0 -0.01,0 -0.01,0 -0.02,0.01 -0.02,0.01 -0.02,0.01 -0.03,0.03 -0.04,0.04 -0.04,0.04 -0.09,0.09 -0.12,0.14 0,0 0,0 -0.01,0 0,0.01 0,0.01 0,0.01 0,0 0,0 0,0 0.12,-0.01 0.25,-0.03 0.41,-0.08 0.16,-0.05 0.32,-0.11 0.47,-0.18 0.01,0 0.03,0 0.03,0.01 0.01,0.02 0.01,0.03 0,0.04 -0.02,0.01 -0.03,0.02 -0.04,0.02 -0.04,0.03 -0.08,0.05 -0.11,0.08 -0.01,0.01 -0.01,0.01 -0.02,0.02 -0.03,0.02 -0.07,0.05 -0.07,0.09 0,0 0.02,0.01 0.13,-0.02l0.01 0c0.05,-0.01 0.11,-0.03 0.16,-0.05 0.02,0 0.04,-0.01 0.06,-0.02 0.09,-0.02 0.17,-0.06 0.24,-0.08 0.01,-0.01 0.03,-0.02 0.05,-0.03 0.05,-0.02 0.11,-0.04 0.17,-0.06 0.02,0 0.06,-0.01 0.09,0 0.02,0.01 0.04,0.02 0.04,0.05 0,0.02 -0.02,0.06 -0.04,0.08 0,0 0,0 0.01,0 0.01,-0.01 0.02,-0.02 0.04,-0.02 0.09,-0.04 0.19,-0.09 0.3,-0.11 0.03,-0.01 0.11,-0.02 0.14,0.03 0.01,0.01 0.01,0.03 0,0.05 -0.02,0.04 -0.06,0.06 -0.1,0.09 -0.01,0 -0.02,0.01 -0.02,0.02l-0.02 0.01c-0.02,0.01 -0.05,0.03 -0.06,0.06 0,0 0,0.01 0,0.01 0,0 0.01,0 0.01,0 0.07,-0.01 0.14,-0.02 0.2,-0.04 0.03,-0.01 0.07,-0.02 0.1,-0.03l0.03 -0.01c0.02,-0.01 0.04,-0.02 0.06,-0.03 0.03,-0.01 0.05,-0.02 0.07,-0.05 0.01,-0.01 0.02,-0.02 0.03,-0.03 0.11,-0.08 0.18,-0.1 0.22,-0.11 0.03,0 0.06,0 0.09,0.02 0.01,0.01 0.01,0.02 0.01,0.04 0,0.02 -0.01,0.04 -0.04,0.06 -0.05,0.03 -0.1,0.05 -0.15,0.06 -0.01,0 -0.03,0.01 -0.04,0.01l-0.11 0.04c-0.02,0.02 -0.02,0.03 -0.02,0.04 0,0.01 0,0.01 0.01,0.01 0.01,0.01 0.02,0.01 0.03,0.01 0.07,-0.01 0.16,-0.02 0.24,-0.05 0.02,0 0.04,-0.01 0.05,-0.01 0.03,-0.01 0.05,-0.02 0.07,-0.03 0.01,0 0.02,0 0.03,0l0 0c0.01,0 0.02,0.01 0.03,0.02 0,0 0,0.01 0,0.01 0,0.01 0,0.01 0,0.01 -0.03,0.02 -0.17,0.07 -0.17,0.07 -0.06,0.01 -0.11,0.02 -0.17,0.03l-0.02 0c-0.03,0.01 -0.06,0.01 -0.09,0.01 -0.02,0 -0.04,-0.01 -0.06,-0.02 -0.02,-0.01 -0.03,-0.04 -0.02,-0.07 -0.06,0.03 -0.12,0.05 -0.18,0.07l-0.02 0c-0.05,0.02 -0.12,0.03 -0.18,0.03l0 0c-0.07,0 -0.08,-0.03 -0.08,-0.05 0,-0.06 0.05,-0.1 0.1,-0.14 0.01,0 0.02,-0.01 0.02,-0.01 0.02,-0.02 0.04,-0.03 0.06,-0.04l0 -0.01c0.01,0 0.02,-0.01 0.02,-0.02 0,0 0,0 0,0 -0.02,-0.01 -0.05,0 -0.08,0.01l-0.01 0c-0.03,0.01 -0.06,0.02 -0.09,0.03 -0.06,0.02 -0.12,0.04 -0.16,0.07 -0.12,0.05 -0.24,0.11 -0.36,0.17l0 0zm0.23 -0.3l0 0c0,0 0.01,0 0.01,0 0.02,0 0.02,0.01 0.03,0.01 0,0.01 0,0.02 0,0.02 -0.01,0.01 -0.01,0.02 -0.02,0.03 -0.03,0.04 -0.07,0.07 -0.1,0.09l-0.02 0.02c-0.02,0.01 -0.05,0.03 -0.07,0.04l-0.03 0.03c0,0 -0.01,0 -0.01,0 -0.01,0.01 -0.03,0.02 -0.03,0.03 0,0 0,0 0,0 0,0.01 0,0.01 0,0.01 0.12,-0.06 0.24,-0.12 0.36,-0.17 0.05,-0.03 0.1,-0.05 0.16,-0.07 0.04,-0.01 0.06,-0.02 0.09,-0.03l0.01 0c0.03,-0.01 0.07,-0.02 0.1,-0.01 0,0 0.01,0.01 0.01,0.01 0,0.01 0,0.01 0,0.02 -0.01,0.01 -0.02,0.02 -0.03,0.03l0 0c-0.02,0.02 -0.04,0.03 -0.05,0.04 -0.01,0.01 -0.02,0.01 -0.03,0.02 -0.04,0.03 -0.09,0.07 -0.09,0.12 0,0.02 0.02,0.03 0.06,0.03l0 0c0.06,0 0.12,-0.01 0.18,-0.03l0.01 0c0.07,-0.02 0.14,-0.05 0.2,-0.08l0.03 -0.01 -0.01 0.03c-0.01,0.02 -0.02,0.05 0.01,0.07 0.01,0 0.02,0.01 0.04,0.01 0.03,0 0.06,0 0.09,-0.01l0.01 0c0.07,-0.01 0.12,-0.01 0.17,-0.03 0.05,-0.02 0.15,-0.05 0.16,-0.06 0,-0.01 -0.01,-0.01 -0.01,-0.01 -0.01,0 -0.01,0 -0.02,0 -0.02,0.01 -0.05,0.02 -0.07,0.02 -0.02,0.01 -0.03,0.02 -0.05,0.02 -0.08,0.03 -0.18,0.04 -0.25,0.05 -0.02,0 -0.03,0 -0.04,-0.01 -0.02,-0.01 -0.02,-0.02 -0.02,-0.02 -0.01,-0.03 0.01,-0.05 0.03,-0.07l0 0 0.11 -0.04c0.02,0 0.03,0 0.05,-0.01 0.04,-0.01 0.09,-0.03 0.14,-0.05 0.02,-0.02 0.03,-0.04 0.03,-0.05 0,-0.01 0,-0.02 -0.01,-0.03 -0.01,-0.01 -0.04,-0.01 -0.07,-0.01 -0.03,0.01 -0.1,0.03 -0.21,0.11 -0.01,0.01 -0.02,0.02 -0.03,0.03 -0.02,0.02 -0.04,0.04 -0.07,0.05 -0.02,0.01 -0.05,0.02 -0.07,0.02l-0.02 0.01c-0.04,0.02 -0.07,0.03 -0.11,0.04 -0.06,0.02 -0.13,0.03 -0.19,0.04 -0.01,0 -0.03,0 -0.04,-0.01 0,-0.01 -0.01,-0.02 0,-0.03 0.01,-0.03 0.05,-0.05 0.07,-0.07l0.02 -0.01c0,-0.01 0.01,-0.01 0.02,-0.02 0.04,-0.02 0.07,-0.04 0.09,-0.08 0.01,-0.01 0.01,-0.03 0,-0.03 -0.02,-0.04 -0.09,-0.03 -0.12,-0.02 -0.1,0.02 -0.2,0.07 -0.29,0.11 -0.02,0 -0.03,0.01 -0.05,0.02 -0.02,0.01 -0.04,0.02 -0.07,0.03l0 0 -0.01 -0.02c0.04,-0.01 0.09,-0.07 0.09,-0.11 0,-0.02 -0.02,-0.03 -0.03,-0.03 -0.03,-0.01 -0.05,0 -0.08,0 -0.06,0.02 -0.11,0.04 -0.16,0.06 -0.02,0.01 -0.04,0.02 -0.06,0.02 -0.06,0.03 -0.14,0.06 -0.23,0.09 -0.02,0.01 -0.04,0.02 -0.06,0.02 -0.06,0.02 -0.11,0.03 -0.17,0.05l0 0c-0.09,0.02 -0.13,0.02 -0.15,0.01 -0.01,0 -0.01,-0.01 -0.01,-0.02 0,-0.04 0.05,-0.07 0.08,-0.1 0.01,0 0.01,-0.01 0.02,-0.01 0.03,-0.03 0.07,-0.06 0.11,-0.08 0.01,-0.01 0.02,-0.02 0.04,-0.02 0,-0.01 0,-0.01 0,-0.02 0,0 -0.01,0 -0.01,0 -0.16,0.06 -0.31,0.13 -0.48,0.18 -0.16,0.04 -0.29,0.07 -0.41,0.08 0,0 -0.01,0 -0.02,0 0,-0.01 -0.01,-0.02 0,-0.03 0,0 0,-0.01 0.01,-0.01 0,0 0,0 0,-0.01 0.04,-0.05 0.08,-0.09 0.12,-0.13 0.02,-0.02 0.03,-0.03 0.04,-0.04 0.01,-0.01 0.02,-0.01 0.03,-0.02 0,0 0.01,0 0.01,0 0.01,-0.01 0.02,-0.01 0.04,-0.02 0.04,-0.03 0.12,-0.07 0.17,-0.09 0.1,-0.06 0.2,-0.13 0.3,-0.19l0.02 -0.01c0.06,-0.04 0.13,-0.09 0.19,-0.13 0.19,-0.14 0.37,-0.29 0.53,-0.44 0.06,-0.05 0.11,-0.1 0.16,-0.16 0.02,-0.02 0.04,-0.04 0.06,-0.07l0 -0.01c0.02,-0.02 0.04,-0.05 0.04,-0.07 0,-0.03 -0.01,-0.05 -0.03,-0.06 -0.03,-0.02 -0.06,-0.01 -0.09,0 -0.09,0.03 -0.16,0.08 -0.23,0.13l-0.01 0.01c-0.07,0.05 -0.14,0.1 -0.2,0.16l-0.31 0.28 -0.39 0.37c0,0 -0.32,0.3 -0.32,0.3 -0.01,0.02 -0.04,0.02 -0.06,0.03 0,0 -0.01,0.01 -0.02,0.01 -0.06,0.03 -0.12,0.05 -0.19,0.08 -0.02,0 -0.04,0.01 -0.06,0.02l0 0c-0.01,0 -0.02,0.01 -0.03,0.01 0,0.01 -0.01,0.02 -0.01,0.02 0,0 0,0 0.01,0 0,0 0.01,0 0.01,0 0.03,-0.01 0.06,-0.02 0.09,-0.03l0.06 -0.03 0.15 -0.06 -0.03 0.03c-0.03,0.04 -0.06,0.08 -0.08,0.13l-0.01 0c0,0.01 0,0.01 -0.01,0.02 0,0.01 0,0.02 0.01,0.02 0.03,0.03 0.12,0.01 0.16,0l0 0c0.21,-0.03 0.41,-0.09 0.59,-0.17l0.06 -0.03 -0.06 0.05c-0.03,0.03 -0.08,0.07 -0.08,0.11 0,0.03 0.01,0.04 0.03,0.05 0.01,0 0.03,0 0.04,0 0.11,-0.01 0.21,-0.04 0.3,-0.07 0.11,-0.03 0.21,-0.07 0.31,-0.11 0.01,-0.01 0.03,-0.01 0.05,-0.02 0.02,-0.01 0.04,-0.03 0.07,-0.03l0.01 -0.01c0.03,-0.01 0.07,-0.02 0.1,-0.02zm0.86 0.11l0 0 0.01 -0.02c0.01,-0.02 0.03,-0.03 0.04,-0.05l0.01 0c0.04,-0.03 0.15,-0.08 0.18,-0.06 0.01,0 0.01,0.01 0.01,0.01 0,0.01 -0.01,0.02 -0.01,0.02 -0.07,0.04 -0.14,0.07 -0.22,0.09l-0.02 0.01zm0.22 -0.12l0 0c-0.03,0 -0.11,0.04 -0.15,0.07l-0.01 0c0,0 -0.01,0.01 -0.01,0.01 0.06,-0.02 0.12,-0.04 0.18,-0.08 0,0 0,0 0,0 0,0 0,0 -0.01,0zm-2.34 -0.06l0 0 -0.02 -0.01c0,-0.01 0.01,-0.01 0.01,-0.01l0.21 -0.2c0.05,-0.05 0.1,-0.09 0.15,-0.14 0.1,-0.09 0.2,-0.19 0.31,-0.29 0.04,-0.04 0.09,-0.08 0.15,-0.14 0.02,-0.01 0.03,-0.03 0.05,-0.04 0.04,-0.03 0.08,-0.07 0.12,-0.1 0.03,-0.03 0.05,-0.05 0.08,-0.07l0.01 -0.01c0.06,-0.05 0.12,-0.1 0.19,-0.12l0.01 -0.01c0.05,-0.02 0.09,-0.03 0.12,-0.01 0.01,0 0.02,0.01 0.02,0.03 0,0.03 -0.05,0.09 -0.13,0.17 -0.02,0.03 -0.05,0.06 -0.08,0.08 -0.02,0.02 -0.05,0.04 -0.07,0.07 -0.06,0.06 -0.14,0.13 -0.23,0.2 -0.18,0.14 -0.34,0.26 -0.51,0.38 -0.06,0.03 -0.13,0.07 -0.2,0.11 -0.03,0.02 -0.06,0.04 -0.1,0.06 -0.01,0.01 -0.03,0.02 -0.05,0.02 0,0.01 -0.01,0.01 -0.01,0.01 -0.01,0.01 -0.02,0.01 -0.03,0.01l0 0.01zm1.36 -1.14l0 0c-0.02,0 -0.06,0.01 -0.08,0.02l-0.01 0c-0.07,0.03 -0.13,0.08 -0.18,0.13l-0.02 0.01c-0.02,0.02 -0.05,0.04 -0.08,0.06 -0.04,0.03 -0.08,0.07 -0.12,0.11 -0.01,0.01 -0.03,0.02 -0.04,0.03 -0.07,0.06 -0.12,0.1 -0.16,0.15 -0.11,0.09 -0.21,0.19 -0.31,0.29 -0.05,0.04 -0.1,0.09 -0.14,0.13l-0.17 0.16c0.01,-0.01 0.02,-0.01 0.04,-0.02 0.03,-0.02 0.06,-0.04 0.09,-0.05 0.07,-0.05 0.14,-0.08 0.19,-0.12 0.18,-0.11 0.34,-0.24 0.52,-0.38 0.09,-0.07 0.16,-0.13 0.22,-0.2 0.03,-0.02 0.05,-0.04 0.08,-0.06 0.03,-0.03 0.06,-0.05 0.08,-0.08 0.1,-0.11 0.12,-0.15 0.12,-0.16 0,-0.01 -0.01,-0.02 -0.01,-0.02 -0.01,0 -0.01,0 -0.02,0z"/>
     </g>
     <g>
      <path class="fil7" d="M3.78 4.83c-0.04,0 -0.06,-0.02 -0.06,-0.06 0,-0.04 0.02,-0.07 0.06,-0.07 0.05,0 0.07,0.03 0.07,0.07 0,0.04 -0.02,0.06 -0.07,0.06z"/>
     </g>
    </g>
    <g>
     <g>
      <path class="fil3" d="M6.58 5.3c-0.03,0 -0.06,-0.03 -0.06,-0.07l0 -2.11c0,-0.04 0.03,-0.07 0.06,-0.07 0.04,0 0.07,0.03 0.07,0.07l0 2.11c0,0.04 -0.03,0.07 -0.07,0.07z"/>
     </g>
    </g>
   </g>
  </g>
 </g>
</svg>
