<?xml version="1.0" encoding="UTF-8"?>
<!DOCTYPE svg PUBLIC "-//W3C//DTD SVG 1.1//EN" "http://www.w3.org/Graphics/SVG/1.1/DTD/svg11.dtd">
<!-- Creator: CorelDRAW 2021 (64-Bit Оценочная версия) -->
<svg xmlns="http://www.w3.org/2000/svg" xml:space="preserve" width="150px" height="150px" version="1.1" style="shape-rendering:geometricPrecision; text-rendering:geometricPrecision; image-rendering:optimizeQuality; fill-rule:evenodd; clip-rule:evenodd"
viewBox="0 0 77.67 77.67"
 xmlns:xlink="http://www.w3.org/1999/xlink"
 xmlns:xodm="http://www.corel.com/coreldraw/odm/2003">
 <defs>
  <style type="text/css">
   <![CDATA[
    .fil7 {fill:#1B5F90;fill-rule:nonzero}
    .fil6 {fill:url(#id0)}
    .fil5 {fill:url(#id1)}
    .fil3 {fill:url(#id2)}
    .fil4 {fill:url(#id3)}
    .fil1 {fill:url(#id4);fill-rule:nonzero}
    .fil0 {fill:url(#id5);fill-rule:nonzero}
    .fil2 {fill:url(#id6);fill-rule:nonzero}
   ]]>
  </style>
  <linearGradient id="id0" gradientUnits="userSpaceOnUse" x1="53.96" y1="22.41" x2="55.9" y2="29.32">
   <stop offset="0" style="stop-opacity:1; stop-color:#1B5F90"/>
   <stop offset="1" style="stop-opacity:1; stop-color:#008DD2"/>
  </linearGradient>
  <linearGradient id="id1" gradientUnits="userSpaceOnUse" x1="15.86" y1="31.86" x2="26.33" y2="41.51">
   <stop offset="0" style="stop-opacity:1; stop-color:#008DD2"/>
   <stop offset="1" style="stop-opacity:1; stop-color:#A2DAF7"/>
  </linearGradient>
  <linearGradient id="id2" gradientUnits="userSpaceOnUse" x1="45.87" y1="28.4" x2="51.23" y2="47.81">
   <stop offset="0" style="stop-opacity:1; stop-color:#1B5F90"/>
   <stop offset="1" style="stop-opacity:1; stop-color:#009FDE"/>
  </linearGradient>
  <linearGradient id="id3" gradientUnits="userSpaceOnUse" xlink:href="#id1" x1="23.44" y1="27.63" x2="33.45" y2="43.45">
  </linearGradient>
  <linearGradient id="id4" gradientUnits="userSpaceOnUse" x1="38.83" y1="5" x2="38.83" y2="72.66">
   <stop offset="0" style="stop-opacity:1; stop-color:#F1F3F3"/>
   <stop offset="1" style="stop-opacity:1; stop-color:#E7E9E9"/>
  </linearGradient>
  <linearGradient id="id5" gradientUnits="userSpaceOnUse" x1="2.76" y1="-1.92" x2="72.77" y2="77.17">
   <stop offset="0" style="stop-opacity:1; stop-color:#F1F3F3"/>
   <stop offset="1" style="stop-opacity:1; stop-color:#FEFEFE"/>
  </linearGradient>
  <linearGradient id="id6" gradientUnits="userSpaceOnUse" xlink:href="#id5" x1="8.28" y1="4.32" x2="67.58" y2="71.31">
  </linearGradient>
 </defs>
 <g id="РЎР_x00bb_РѕР_x2116__x0020_1">
  <metadata id="CorelCorpID_0Corel-Layer"/>
  <g id="_2367278832912">
   <path class="fil0" d="M77.67 38.83c0,21.45 -17.39,38.84 -38.84,38.84 -21.44,0 -38.83,-17.39 -38.83,-38.84 0,-21.44 17.39,-38.83 38.83,-38.83 21.45,0 38.84,17.39 38.84,38.83z"/>
   <path class="fil1" d="M38.83 72.66c-18.65,0 -33.83,-15.17 -33.83,-33.83 0,-18.65 15.18,-33.83 33.83,-33.83 18.66,0 33.83,15.18 33.83,33.83 0,18.66 -15.17,33.83 -33.83,33.83zm0 -65.78l0 0c-17.62,0 -31.95,14.33 -31.95,31.95 0,17.63 14.33,31.96 31.95,31.96 17.62,0 31.96,-14.33 31.96,-31.96 0,-17.62 -14.34,-31.95 -31.96,-31.95z"/>
   <path class="fil2" d="M71.73 38.83c0,18.17 -14.73,32.9 -32.9,32.9 -18.16,0 -32.89,-14.73 -32.89,-32.9 0,-18.16 14.73,-32.89 32.89,-32.89 18.17,0 32.9,14.73 32.9,32.89z"/>
   <g>
    <path class="fil3" d="M62.59 29.27l-1.55 0c-0.92,0 -1.59,0.37 -2.02,1.12l-3.11 4.09c-0.4,0.43 -0.8,0.43 -1.2,0l-2.96 -4.04c-0.59,-0.76 -1.36,-1.13 -2.34,-1.12l-0.87 0 -0.01 0 -1.55 0c-0.92,0 -1.6,0.38 -2.03,1.12l-3.1 4.09c-0.4,0.43 -0.8,0.43 -1.2,0l-2.97 -4.04c-0.58,-0.75 -1.35,-1.13 -2.33,-1.11l-1.12 0c-0.92,0.17 -1.09,0.67 -0.5,1.52l4.67 6.32c0.44,0.59 0.43,1.2 -0.01,1.81l-4.66 6.43c-0.59,0.84 -0.42,1.35 0.5,1.52l1.12 0c0.98,0.01 1.75,-0.36 2.33,-1.12l3.31 -4.35c0.32,-0.42 0.63,-0.42 0.94,-0.01l3.24 4.35c0.57,0.77 1.29,1.14 2.15,1.13l1.29 0c1.08,0.04 1.35,-0.33 0.82,-1.11l-5.1 -7.4c-0.36,-0.51 -0.37,-1 -0.02,-1.45l4.13 -5.31 4.02 5.45c0.35,0.4 0.68,0.79 1,1.2l0 6.8c-0.06,1.21 0.52,1.8 1.72,1.77 1.24,0.03 1.84,-0.55 1.81,-1.73l0 -3.23 0 -3.61c0.58,-0.48 1.04,-0.94 1.38,-1.39l5.12 -6.58c0.53,-0.7 0.23,-1.07 -0.9,-1.12z"/>
    <path class="fil4" d="M29.64 28.29c0.53,-0.46 1.21,-1.02 2.68,-1.33 1.68,-0.36 2.97,-0.06 4.34,-0.16 3.31,-0.27 6.15,-2.4 6.35,-2.7 -0.19,0.52 -2.66,2.93 -5.83,3.41 -1.31,0.19 -2.76,0.04 -4.17,0.46 -1.19,0.35 -2,1.23 -2.33,1.77l0.25 0.28c0.08,0.1 0.13,0.2 0.15,0.31 0.03,0.14 0.01,0.24 -0.02,0.37l-0.3 1.18 -0.3 1.22c-0.03,0.12 -0.08,0.22 -0.15,0.31 -0.1,0.11 -0.19,0.16 -0.31,0.21l-1.11 0.51 -1.13 0.52c-0.12,0.05 -0.23,0.07 -0.34,0.07 -0.15,-0.01 -0.24,-0.04 -0.36,-0.1l-1.08 -0.56 -1.12 -0.56c-0.11,-0.06 -0.2,-0.13 -0.27,-0.22 -0.08,-0.12 -0.11,-0.21 -0.14,-0.34l-0.25 -1.2 -0.25 -1.22c-0.02,-0.12 -0.02,-0.24 0.01,-0.35 0.03,-0.14 0.09,-0.22 0.18,-0.32l0.77 -0.94 0.81 -0.96c0.07,-0.09 0.16,-0.17 0.27,-0.21 0.13,-0.06 0.23,-0.07 0.36,-0.06l1.22 0.02 1.25 0.03c0.12,0 0.24,0.02 0.34,0.08 0.13,0.07 0.19,0.14 0.28,0.25l0.2 0.23zm3.17 11.54c-0.59,1.02 -0.97,1.67 -1.56,2.69 -0.56,0.98 -0.93,1.61 -1.49,2.59 -0.88,1.52 -1.37,1.87 -3.12,1.87 -1.18,0 -1.93,0 -3.11,0 -1.13,0 -1.86,0 -2.99,0 -1.75,0 -2.3,-0.25 -3.18,-1.76 -0.59,-1.02 -0.96,-1.68 -1.55,-2.7 -0.57,-0.97 -0.93,-1.61 -1.5,-2.58 -0.87,-1.52 -0.94,-2.13 -0.06,-3.64 0.59,-1.02 0.97,-1.67 1.56,-2.7 0.56,-0.97 0.92,-1.61 1.49,-2.58 0.88,-1.52 1.37,-1.88 3.12,-1.88 1.18,0 1.93,0 3.11,0l0.34 0 -0.38 0.46c-0.1,0.12 -0.17,0.22 -0.21,0.39 -0.04,0.13 -0.03,0.27 0,0.41l0.29 1.45 0.06 0.26 -0.1 0c-0.79,0 -1.29,0 -2.08,0 -1.17,0 -1.5,0.23 -2.08,1.25 -0.38,0.65 -0.62,1.07 -1,1.72 -0.39,0.69 -0.65,1.12 -1.04,1.8 -0.58,1.02 -0.54,1.42 0.04,2.43 0.38,0.66 0.62,1.08 1,1.73 0.39,0.68 0.65,1.12 1.04,1.8 0.58,1.01 0.95,1.18 2.13,1.18 0.75,0 1.24,0 1.99,0 0.79,0 1.29,0 2.08,0 1.17,0 1.49,-0.24 2.08,-1.25 0.38,-0.65 0.62,-1.08 1,-1.73 0.39,-0.68 0.64,-1.12 1.04,-1.8 0.58,-1.01 0.54,-1.41 -0.05,-2.43 -0.37,-0.65 -0.62,-1.07 -0.99,-1.73l-0.1 -0.17 0.54 -0.24 1.31 -0.6c0.14,-0.06 0.25,-0.12 0.36,-0.25 0.09,-0.11 0.14,-0.23 0.18,-0.37l0.05 -0.22 0.22 0.37c0.56,0.98 0.93,1.61 1.49,2.59 0.88,1.52 0.94,2.12 0.07,3.64l0 0z"/>
    <path class="fil5" d="M26.41 34.29l-0.43 -0.23 -1.12 -0.56c-0.11,-0.06 -0.2,-0.13 -0.27,-0.22 -0.08,-0.12 -0.11,-0.21 -0.14,-0.34l-0.25 -1.2 -0.25 -1.22c-0.02,-0.12 -0.02,-0.24 0.01,-0.35 0.03,-0.14 0.09,-0.22 0.18,-0.32l0.77 -0.94 0.81 -0.96c0.07,-0.09 0.16,-0.17 0.27,-0.21 0.13,-0.06 0.23,-0.07 0.36,-0.06l1.22 0.02 0.75 0.02c-0.39,2.29 -1.03,4.49 -1.91,6.57zm-6.4 9.36c-0.75,0.72 -1.53,1.4 -2.36,2.04 -0.09,-0.14 -0.19,-0.3 -0.29,-0.47 -0.59,-1.02 -0.96,-1.68 -1.55,-2.7 -0.57,-0.97 -0.93,-1.61 -1.5,-2.58 -0.87,-1.52 -0.94,-2.13 -0.06,-3.64 0.59,-1.02 0.97,-1.67 1.56,-2.7 0.56,-0.97 0.92,-1.61 1.49,-2.58 0.88,-1.52 1.37,-1.88 3.12,-1.88 1.18,0 1.93,0 3.11,0l0.34 0 -0.38 0.46c-0.1,0.12 -0.17,0.22 -0.21,0.39 -0.04,0.13 -0.03,0.27 0,0.41l0.29 1.45 0.06 0.26 -0.1 0c-0.79,0 -1.29,0 -2.08,0 -1.17,0 -1.5,0.23 -2.08,1.25 -0.38,0.65 -0.62,1.07 -1,1.72 -0.39,0.69 -0.65,1.12 -1.04,1.8 -0.58,1.02 -0.54,1.42 0.04,2.43 0.38,0.66 0.62,1.08 1,1.73 0.39,0.68 0.65,1.12 1.04,1.8 0.21,0.37 0.4,0.63 0.6,0.81l0 0z"/>
    <path class="fil6" d="M47.94 26.56c0.14,0.01 0.2,0.08 0.2,0.24 0,0.16 -0.06,0.24 -0.2,0.24l-0.96 0c-0.35,0 -0.63,-0.11 -0.84,-0.32 -0.22,-0.22 -0.33,-0.5 -0.33,-0.85 0,-0.35 0.11,-0.63 0.33,-0.85 0.21,-0.21 0.49,-0.32 0.84,-0.32l0.96 -0.01c0.14,0 0.2,0.08 0.2,0.23 0,0.16 -0.06,0.24 -0.19,0.24l-0.08 0 -0.89 0c-0.21,0.01 -0.37,0.08 -0.5,0.21 -0.13,0.13 -0.2,0.3 -0.2,0.5 0,0.3 0.12,0.5 0.36,0.62 0.11,0.06 0.22,0.08 0.34,0.08l0.96 -0.01zm2.31 -0.46l-0.75 0 0 0.3c0,0.11 0.04,0.17 0.13,0.16l1.53 0c0.13,0.01 0.2,0.08 0.2,0.24 0,0.16 -0.07,0.23 -0.22,0.23l-0.57 0 -1.29 0c-0.17,0 -0.25,-0.09 -0.25,-0.27l0 -1.79c0,-0.18 0.08,-0.27 0.24,-0.27l1.89 -0.01c0.13,0 0.2,0.08 0.2,0.23 0,0.16 -0.07,0.24 -0.2,0.24l-0.3 0 -0.17 0 -1.06 0c-0.09,0 -0.13,0.06 -0.13,0.16l0 0.31 0.76 0c0.16,0.01 0.24,0.09 0.24,0.24 0,0.16 -0.09,0.23 -0.25,0.23zm4.32 -0.86l0 1.59c0,0.14 -0.07,0.2 -0.22,0.2l-0.12 0c-0.08,0 -0.15,-0.02 -0.21,-0.08l-1.14 -1.2c-0.11,-0.09 -0.17,-0.09 -0.17,0.01l0 0.23 0 0.81c0,0.16 -0.07,0.24 -0.23,0.24 -0.16,-0.01 -0.24,-0.09 -0.24,-0.24l0 -0.71 0 -1.21c0,-0.12 0.05,-0.18 0.16,-0.19l0.12 0c0.07,0.01 0.13,0.04 0.19,0.1l1.24 1.33c0.11,0.06 0.16,0.03 0.16,-0.07l0 -0.65 0 -0.47c-0.01,-0.15 0.06,-0.23 0.22,-0.23 0.16,0 0.24,0.08 0.24,0.23l0 0.31zm1.82 1.24l0 -1.14c-0.01,-0.12 -0.06,-0.17 -0.16,-0.18l-0.58 0c-0.13,0 -0.2,-0.08 -0.2,-0.24 0,-0.15 0.07,-0.23 0.21,-0.23l0.21 0 1.5 0c0.17,0.01 0.25,0.09 0.25,0.25 0,0.15 -0.08,0.23 -0.25,0.22l-0.36 0c-0.1,0 -0.15,0.06 -0.15,0.17l0 1.47c0,0.16 -0.07,0.24 -0.23,0.23 -0.17,0.01 -0.25,-0.07 -0.24,-0.22l0 -0.33zm3.33 -0.38l-0.76 0 0 0.3c0,0.11 0.05,0.17 0.14,0.16l1.52 0c0.14,0.01 0.21,0.08 0.21,0.24 0,0.16 -0.08,0.23 -0.22,0.23l-0.57 0 -1.29 0c-0.17,0 -0.25,-0.09 -0.25,-0.27l0 -1.79c0,-0.18 0.08,-0.27 0.24,-0.27l1.88 -0.01c0.14,0 0.21,0.08 0.21,0.23 0,0.16 -0.07,0.24 -0.2,0.24l-0.3 0 -0.17 0 -1.06 0c-0.09,0 -0.14,0.06 -0.14,0.16l0 0.31 0.77 0c0.16,0.01 0.23,0.09 0.23,0.24 0,0.16 -0.08,0.23 -0.24,0.23zm3.1 0l0.49 0c0.13,0 0.21,0.03 0.25,0.11 0.01,0.03 0.02,0.07 0.02,0.12l-0.01 0.47c0,0.15 0.08,0.23 0.23,0.24 0.16,-0.01 0.24,-0.09 0.24,-0.24l0 -0.05 0 -0.41c-0.01,-0.25 -0.12,-0.4 -0.33,-0.45 0.21,-0.05 0.32,-0.21 0.33,-0.49 0,-0.15 -0.03,-0.28 -0.1,-0.38 -0.15,-0.21 -0.43,-0.32 -0.83,-0.32l-1.14 0c-0.17,0 -0.26,0.1 -0.26,0.29l0 1.81c0,0.15 0.08,0.23 0.24,0.24 0.16,0 0.23,-0.08 0.23,-0.24l0 -1.46c0,-0.12 0.05,-0.18 0.16,-0.18l0.77 0c0.15,0.01 0.25,0.02 0.32,0.04 0.06,0.02 0.1,0.04 0.12,0.07 0.02,0.03 0.03,0.07 0.03,0.13 0,0.05 -0.01,0.1 -0.02,0.13 -0.04,0.07 -0.12,0.11 -0.25,0.11l-0.5 -0.01c-0.15,0.01 -0.23,0.09 -0.23,0.24 0,0.16 0.08,0.23 0.24,0.23l0 0z"/>
    <path class="fil7" d="M19.65 52.46l-0.33 -0.5c-0.08,-0.13 -0.14,-0.21 -0.2,-0.25 -0.05,-0.04 -0.14,-0.06 -0.24,-0.06l-0.22 0 0 0.81 -0.39 0 0 -1.94 0.39 0 0 0.75 0.19 0c0.11,0 0.19,-0.02 0.24,-0.06 0.05,-0.04 0.12,-0.12 0.2,-0.25l0.29 -0.44 0.43 0 -0.39 0.6c-0.13,0.19 -0.23,0.3 -0.32,0.33 0.1,0.04 0.22,0.15 0.34,0.35l0.44 0.66 -0.43 0zm1.5 -1.36l-0.61 1.36 -0.41 0 0.9 -1.94 0.24 0 0.9 1.94 -0.41 0 -0.61 -1.36zm3.04 1.36l-0.39 0 0 -1.3 -1.14 1.3 -0.24 0 0 -1.94 0.38 0 0 1.3 1.15 -1.3 0.24 0 0 1.94zm2.3 0l-0.39 0 0 -0.8 -1.02 0 0 0.8 -0.39 0 0 -1.94 0.39 0 0 0.77 1.02 0 0 -0.77 0.39 0 0 1.94zm2.27 0l-0.39 0 0 -1.3 -1.14 1.3 -0.24 0 0 -1.94 0.39 0 0 1.3 1.14 -1.3 0.24 0 0 1.94zm1.9 0l-0.33 -0.5c-0.08,-0.13 -0.14,-0.21 -0.2,-0.25 -0.05,-0.04 -0.13,-0.06 -0.24,-0.06l-0.22 0 0 0.81 -0.39 0 0 -1.94 0.39 0 0 0.75 0.19 0c0.11,0 0.19,-0.02 0.24,-0.06 0.06,-0.04 0.12,-0.12 0.2,-0.25l0.29 -0.44 0.43 0 -0.39 0.6c-0.13,0.19 -0.23,0.3 -0.32,0.33 0.11,0.04 0.22,0.15 0.35,0.35l0.43 0.66 -0.43 0zm2.5 0l-0.26 0 -0.03 -0.36c-0.07,0.12 -0.17,0.21 -0.3,0.28 -0.12,0.07 -0.26,0.1 -0.41,0.1 -0.28,0 -0.51,-0.09 -0.69,-0.29 -0.18,-0.19 -0.27,-0.42 -0.27,-0.7 0,-0.28 0.09,-0.52 0.27,-0.71 0.18,-0.19 0.41,-0.29 0.69,-0.29 0.15,0 0.29,0.04 0.41,0.11 0.13,0.07 0.23,0.16 0.3,0.28l0.03 -0.36 0.26 0 0 1.94zm-1.39 -0.52c0.11,0.11 0.26,0.17 0.42,0.17 0.17,0 0.31,-0.06 0.43,-0.18 0.12,-0.11 0.18,-0.26 0.18,-0.44 0,-0.18 -0.06,-0.33 -0.18,-0.45 -0.12,-0.12 -0.26,-0.18 -0.43,-0.18 -0.16,0 -0.31,0.06 -0.42,0.18 -0.12,0.12 -0.18,0.27 -0.18,0.45 0,0.18 0.06,0.33 0.18,0.45zm5.39 0.52l-0.39 0 0 -1.3 -0.63 0.71 -0.63 -0.71 0 1.3 -0.39 0 0 -1.94 0.25 0 0.77 0.88 0.77 -0.88 0.25 0 0 1.94zm2.35 -1.94l0 1.7c0,0.29 -0.08,0.53 -0.25,0.71 -0.17,0.18 -0.4,0.27 -0.7,0.27 -0.33,0 -0.61,-0.1 -0.85,-0.3l0.22 -0.23c0.21,0.12 0.41,0.18 0.63,0.18 0.18,0 0.32,-0.05 0.42,-0.15 0.1,-0.09 0.15,-0.23 0.15,-0.4l0 -0.18c-0.07,0.11 -0.16,0.19 -0.27,0.24 -0.11,0.05 -0.23,0.08 -0.36,0.08 -0.26,0 -0.47,-0.08 -0.62,-0.25 -0.15,-0.16 -0.22,-0.39 -0.22,-0.68l0 -0.99 0.39 0 0 0.97c0,0.38 0.17,0.58 0.51,0.58 0.18,0 0.32,-0.06 0.42,-0.17 0.1,-0.11 0.15,-0.28 0.15,-0.49l0 -0.89 0.38 0zm3 1.94l-0.33 -0.5c-0.08,-0.13 -0.14,-0.21 -0.2,-0.25 -0.05,-0.04 -0.13,-0.06 -0.24,-0.06l-0.18 0 0 0.81 -0.39 0 0 -0.81 -0.18 0c-0.11,0 -0.2,0.02 -0.25,0.06 -0.05,0.04 -0.12,0.12 -0.2,0.25l-0.33 0.5 -0.43 0 0.44 -0.66c0.12,-0.2 0.24,-0.31 0.34,-0.35 -0.09,-0.03 -0.19,-0.14 -0.32,-0.33l-0.39 -0.6 0.43 0 0.29 0.44c0.08,0.13 0.15,0.21 0.2,0.25 0.05,0.04 0.13,0.06 0.25,0.06l0.15 0 0 -0.75 0.39 0 0 0.75 0.15 0c0.11,0 0.19,-0.02 0.24,-0.06 0.06,-0.04 0.12,-0.12 0.21,-0.25l0.28 -0.44 0.44 0 -0.4 0.6c-0.12,0.19 -0.23,0.3 -0.32,0.33 0.1,0.04 0.22,0.15 0.35,0.35l0.43 0.66 -0.43 0zm1.6 -1.96c0.31,0 0.56,0.11 0.76,0.35l-0.23 0.25c-0.15,-0.15 -0.33,-0.23 -0.53,-0.23 -0.17,0 -0.31,0.06 -0.43,0.17 -0.12,0.12 -0.18,0.27 -0.18,0.45 0,0.18 0.06,0.33 0.18,0.45 0.12,0.11 0.26,0.17 0.43,0.17 0.2,0 0.38,-0.08 0.53,-0.24l0.23 0.26c-0.2,0.23 -0.45,0.35 -0.76,0.35 -0.28,0 -0.51,-0.09 -0.71,-0.29 -0.19,-0.19 -0.28,-0.43 -0.28,-0.7 0,-0.28 0.09,-0.51 0.28,-0.7 0.2,-0.2 0.43,-0.29 0.71,-0.29zm2.53 1.96l-0.33 -0.5c-0.08,-0.13 -0.15,-0.21 -0.2,-0.25 -0.06,-0.04 -0.14,-0.06 -0.25,-0.06l-0.21 0 0 0.81 -0.39 0 0 -1.94 0.39 0 0 0.75 0.18 0c0.11,0 0.2,-0.02 0.25,-0.06 0.05,-0.04 0.12,-0.12 0.2,-0.25l0.29 -0.44 0.43 0 -0.4 0.6c-0.12,0.19 -0.23,0.3 -0.31,0.33 0.1,0.04 0.21,0.15 0.34,0.35l0.44 0.66 -0.43 0zm1.55 -1.97c0.27,0 0.51,0.1 0.7,0.29 0.2,0.2 0.3,0.43 0.3,0.71 0,0.27 -0.1,0.51 -0.3,0.7 -0.19,0.2 -0.43,0.29 -0.7,0.29 -0.28,0 -0.51,-0.09 -0.71,-0.29 -0.19,-0.19 -0.29,-0.43 -0.29,-0.7 0,-0.28 0.1,-0.51 0.3,-0.71 0.19,-0.19 0.42,-0.29 0.7,-0.29zm0.43 0.55c-0.12,-0.12 -0.27,-0.18 -0.43,-0.18 -0.17,0 -0.31,0.06 -0.43,0.18 -0.12,0.12 -0.18,0.27 -0.18,0.45 0,0.18 0.06,0.33 0.18,0.45 0.12,0.11 0.26,0.17 0.43,0.17 0.16,0 0.31,-0.06 0.43,-0.18 0.12,-0.11 0.18,-0.26 0.18,-0.44 0,-0.18 -0.06,-0.33 -0.18,-0.45zm1.34 -0.15l0 1.57 -0.39 0 0 -1.94 1.47 0 0 0.37 -1.08 0zm2.22 -0.4c0.27,0 0.51,0.1 0.7,0.29 0.2,0.2 0.3,0.43 0.3,0.71 0,0.27 -0.1,0.51 -0.3,0.7 -0.19,0.2 -0.43,0.29 -0.7,0.29 -0.28,0 -0.51,-0.09 -0.71,-0.29 -0.19,-0.19 -0.29,-0.43 -0.29,-0.7 0,-0.28 0.1,-0.51 0.29,-0.71 0.2,-0.19 0.43,-0.29 0.71,-0.29zm0.43 0.55c-0.12,-0.12 -0.27,-0.18 -0.43,-0.18 -0.17,0 -0.31,0.06 -0.43,0.18 -0.12,0.12 -0.18,0.27 -0.18,0.45 0,0.18 0.06,0.33 0.18,0.45 0.12,0.11 0.26,0.17 0.43,0.17 0.16,0 0.31,-0.06 0.43,-0.18 0.12,-0.11 0.18,-0.26 0.18,-0.44 0,-0.18 -0.06,-0.33 -0.18,-0.45zm4.19 1.42l-0.39 0 0 -1.3 -1.14 1.3 -0.25 0 0 -1.94 0.39 0 0 1.3 1.14 -1.3 0.25 0 0 1.94zm-34.96 3.96l-0.33 -0.5c-0.08,-0.13 -0.15,-0.21 -0.2,-0.25 -0.05,-0.04 -0.13,-0.06 -0.25,-0.06l-0.18 0 0 0.81 -0.39 0 0 -0.81 -0.17 0c-0.12,0 -0.2,0.02 -0.25,0.06 -0.06,0.04 -0.13,0.12 -0.21,0.25l-0.32 0.5 -0.43 0 0.43 -0.66c0.13,-0.2 0.24,-0.31 0.34,-0.35 -0.08,-0.03 -0.18,-0.14 -0.31,-0.33l-0.4 -0.6 0.43 0 0.3 0.44c0.08,0.13 0.14,0.21 0.2,0.25 0.05,0.04 0.13,0.06 0.24,0.06l0.15 0 0 -0.75 0.39 0 0 0.75 0.15 0c0.11,0 0.2,-0.02 0.25,-0.06 0.05,-0.04 0.12,-0.12 0.2,-0.25l0.29 -0.44 0.44 0 -0.4 0.6c-0.13,0.19 -0.23,0.3 -0.32,0.33 0.1,0.04 0.21,0.15 0.35,0.35l0.43 0.66 -0.43 0zm1.54 -1.97c0.21,0 0.39,0.05 0.53,0.15 0.15,0.09 0.26,0.23 0.33,0.4 0.04,0.08 0.06,0.17 0.07,0.28 0,0.11 -0.01,0.2 -0.03,0.27l-1.48 0c0,0.17 0.06,0.3 0.17,0.39 0.11,0.1 0.26,0.15 0.43,0.15 0.23,0 0.44,-0.06 0.63,-0.17l0.21 0.22c-0.26,0.2 -0.54,0.3 -0.84,0.3 -0.29,0 -0.53,-0.09 -0.72,-0.28 -0.19,-0.18 -0.28,-0.42 -0.28,-0.71 0,-0.28 0.09,-0.52 0.27,-0.71 0.18,-0.19 0.42,-0.29 0.71,-0.29zm0.01 0.35c-0.17,0 -0.3,0.05 -0.4,0.15 -0.11,0.1 -0.17,0.21 -0.18,0.35l1.12 0c0,-0.07 -0.02,-0.13 -0.05,-0.19 -0.04,-0.09 -0.1,-0.17 -0.19,-0.22 -0.09,-0.06 -0.19,-0.09 -0.3,-0.09zm3.12 1.62l-0.38 0 0 -0.8 -1.03 0 0 0.8 -0.38 0 0 -1.94 0.38 0 0 0.77 1.03 0 0 -0.77 0.38 0 0 1.94zm1.38 -1.96c0.31,0 0.57,0.11 0.77,0.35l-0.24 0.25c-0.15,-0.15 -0.32,-0.23 -0.53,-0.23 -0.16,0 -0.31,0.06 -0.43,0.17 -0.11,0.12 -0.17,0.27 -0.17,0.45 0,0.18 0.06,0.33 0.17,0.45 0.12,0.11 0.27,0.17 0.43,0.17 0.2,0 0.38,-0.08 0.53,-0.24l0.24 0.26c-0.2,0.23 -0.46,0.35 -0.77,0.35 -0.28,0 -0.51,-0.09 -0.7,-0.29 -0.2,-0.19 -0.29,-0.43 -0.29,-0.7 0,-0.28 0.09,-0.51 0.29,-0.7 0.19,-0.2 0.42,-0.29 0.7,-0.29zm2.53 1.96l-0.33 -0.5c-0.08,-0.13 -0.15,-0.21 -0.2,-0.25 -0.05,-0.04 -0.14,-0.06 -0.24,-0.06l-0.22 0 0 0.81 -0.39 0 0 -1.94 0.39 0 0 0.75 0.18 0c0.12,0 0.2,-0.02 0.25,-0.06 0.05,-0.04 0.12,-0.12 0.2,-0.25l0.29 -0.44 0.43 0 -0.39 0.6c-0.13,0.19 -0.23,0.3 -0.32,0.33 0.1,0.04 0.22,0.15 0.34,0.35l0.44 0.66 -0.43 0zm1.55 -1.97c0.28,0 0.51,0.1 0.71,0.29 0.19,0.2 0.29,0.43 0.29,0.71 0,0.27 -0.1,0.51 -0.29,0.7 -0.2,0.2 -0.43,0.29 -0.71,0.29 -0.28,0 -0.51,-0.09 -0.7,-0.29 -0.2,-0.19 -0.29,-0.43 -0.29,-0.7 0,-0.28 0.09,-0.51 0.29,-0.71 0.19,-0.19 0.43,-0.29 0.7,-0.29zm0.43 0.55c-0.12,-0.12 -0.26,-0.18 -0.43,-0.18 -0.17,0 -0.31,0.06 -0.43,0.18 -0.12,0.12 -0.18,0.27 -0.18,0.45 0,0.18 0.06,0.33 0.18,0.45 0.12,0.11 0.26,0.17 0.43,0.17 0.17,0 0.31,-0.06 0.43,-0.18 0.12,-0.11 0.18,-0.26 0.18,-0.44 0,-0.18 -0.06,-0.33 -0.18,-0.45zm1.34 -0.15l0 1.57 -0.39 0 0 -1.94 1.48 0 0 0.37 -1.09 0zm2.22 -0.4c0.28,0 0.51,0.1 0.71,0.29 0.19,0.2 0.29,0.43 0.29,0.71 0,0.27 -0.1,0.51 -0.29,0.7 -0.2,0.2 -0.43,0.29 -0.71,0.29 -0.28,0 -0.51,-0.09 -0.7,-0.29 -0.2,-0.19 -0.29,-0.43 -0.29,-0.7 0,-0.28 0.09,-0.51 0.29,-0.71 0.19,-0.19 0.43,-0.29 0.7,-0.29zm0.43 0.55c-0.12,-0.12 -0.26,-0.18 -0.43,-0.18 -0.17,0 -0.31,0.06 -0.43,0.18 -0.12,0.12 -0.18,0.27 -0.18,0.45 0,0.18 0.06,0.33 0.18,0.45 0.12,0.11 0.26,0.17 0.43,0.17 0.17,0 0.31,-0.06 0.43,-0.18 0.12,-0.11 0.18,-0.26 0.18,-0.44 0,-0.18 -0.06,-0.33 -0.18,-0.45zm3.6 0.41c0.25,0.05 0.38,0.2 0.38,0.45 0,0.19 -0.08,0.33 -0.22,0.43 -0.14,0.1 -0.33,0.15 -0.57,0.16l-0.05 0c-0.19,0 -0.36,-0.04 -0.52,-0.12 -0.17,-0.07 -0.28,-0.16 -0.34,-0.26l0.21 -0.23c0.07,0.08 0.16,0.14 0.28,0.18 0.11,0.05 0.23,0.07 0.36,0.07l0.05 0c0.12,0 0.22,-0.02 0.3,-0.07 0.07,-0.05 0.11,-0.12 0.11,-0.22 0,-0.17 -0.11,-0.26 -0.33,-0.26l-0.33 0 0 -0.24 0.29 0c0.19,0 0.28,-0.08 0.28,-0.24 0,-0.08 -0.03,-0.15 -0.1,-0.19 -0.07,-0.04 -0.15,-0.07 -0.25,-0.07l-0.04 0c-0.21,0 -0.4,0.08 -0.56,0.23l-0.2 -0.22c0.08,-0.1 0.2,-0.19 0.34,-0.26 0.14,-0.06 0.29,-0.1 0.45,-0.1l0.04 0c0.2,0 0.36,0.05 0.5,0.14 0.14,0.1 0.2,0.23 0.2,0.39 0,0.22 -0.09,0.36 -0.28,0.43zm2.81 1.41l-0.38 0 0 -0.4 -1.48 0 0 0.4 -0.39 0 0 -0.77 0.28 0 0.72 -1.57 0.25 0 0.72 1.57 0.28 0 0 0.77zm-1.12 -1.76l-0.45 0.99 0.9 0 -0.45 -0.99zm2.23 -0.61c0.28,0 0.52,0.1 0.71,0.29 0.19,0.2 0.29,0.43 0.29,0.71 0,0.27 -0.1,0.51 -0.29,0.7 -0.19,0.2 -0.43,0.29 -0.71,0.29 -0.27,0 -0.51,-0.09 -0.7,-0.29 -0.19,-0.19 -0.29,-0.43 -0.29,-0.7 0,-0.28 0.1,-0.51 0.29,-0.71 0.19,-0.19 0.43,-0.29 0.7,-0.29zm0.43 0.55c-0.12,-0.12 -0.26,-0.18 -0.43,-0.18 -0.16,0 -0.3,0.06 -0.42,0.18 -0.12,0.12 -0.18,0.27 -0.18,0.45 0,0.18 0.06,0.33 0.18,0.45 0.12,0.11 0.26,0.17 0.42,0.17 0.17,0 0.31,-0.06 0.43,-0.18 0.12,-0.11 0.18,-0.26 0.18,-0.44 0,-0.18 -0.06,-0.33 -0.18,-0.45zm1.99 -0.54c0.27,0 0.5,0.09 0.68,0.28 0.19,0.2 0.28,0.43 0.28,0.71 0,0.28 -0.09,0.51 -0.28,0.71 -0.18,0.19 -0.41,0.29 -0.68,0.29 -0.13,0 -0.25,-0.03 -0.36,-0.09 -0.1,-0.06 -0.19,-0.14 -0.26,-0.24l0 1.01 -0.38 0 0 -2.65 0.26 0 0.02 0.36c0.08,-0.12 0.18,-0.21 0.3,-0.28 0.13,-0.07 0.27,-0.1 0.42,-0.1zm0.39 0.54c-0.12,-0.11 -0.26,-0.17 -0.42,-0.17 -0.17,0 -0.31,0.06 -0.43,0.17 -0.12,0.12 -0.18,0.27 -0.18,0.45 0,0.18 0.06,0.33 0.18,0.44 0.12,0.12 0.26,0.18 0.43,0.18 0.16,0 0.3,-0.06 0.42,-0.17 0.12,-0.12 0.18,-0.27 0.18,-0.45 0,-0.18 -0.06,-0.33 -0.18,-0.45zm1.83 -0.55c0.27,0 0.51,0.1 0.7,0.29 0.2,0.2 0.3,0.43 0.3,0.71 0,0.27 -0.1,0.51 -0.3,0.7 -0.19,0.2 -0.43,0.29 -0.7,0.29 -0.28,0 -0.51,-0.09 -0.71,-0.29 -0.19,-0.19 -0.29,-0.43 -0.29,-0.7 0,-0.28 0.1,-0.51 0.29,-0.71 0.2,-0.19 0.43,-0.29 0.71,-0.29zm0.43 0.55c-0.12,-0.12 -0.27,-0.18 -0.43,-0.18 -0.17,0 -0.31,0.06 -0.43,0.18 -0.12,0.12 -0.18,0.27 -0.18,0.45 0,0.18 0.06,0.33 0.18,0.45 0.12,0.11 0.26,0.17 0.43,0.17 0.16,0 0.31,-0.06 0.43,-0.18 0.12,-0.11 0.18,-0.26 0.18,-0.44 0,-0.18 -0.06,-0.33 -0.18,-0.45zm0.95 -0.52l1.02 0c0.22,0 0.38,0.04 0.48,0.13 0.11,0.1 0.16,0.22 0.16,0.39 0,0.2 -0.09,0.34 -0.27,0.41 0.12,0.02 0.21,0.07 0.27,0.15 0.06,0.08 0.09,0.18 0.09,0.3 0,0.19 -0.06,0.33 -0.17,0.42 -0.12,0.09 -0.31,0.14 -0.56,0.14l-1.02 0 0 -1.94zm0.39 0.33l0 0.46 0.61 0c0.18,0 0.28,-0.07 0.28,-0.23 0,-0.15 -0.1,-0.23 -0.29,-0.23l-0.6 0zm0 1.28l0.64 0c0.22,0 0.34,-0.09 0.34,-0.26 0,-0.18 -0.11,-0.27 -0.33,-0.27l-0.65 0 0 0.53zm2.14 -1.02l0.56 0c0.16,0 0.29,0.02 0.39,0.06 0.11,0.04 0.2,0.1 0.25,0.17 0.06,0.07 0.1,0.14 0.12,0.21 0.02,0.07 0.03,0.15 0.03,0.23 0,0.09 -0.01,0.17 -0.03,0.24 -0.02,0.07 -0.06,0.14 -0.12,0.21 -0.05,0.07 -0.14,0.13 -0.25,0.17 -0.1,0.04 -0.23,0.06 -0.39,0.06l-0.94 0 0 -1.94 0.38 0 0 0.59zm0 0.99l0.61 0c0.24,0 0.36,-0.11 0.36,-0.32 0,-0.2 -0.12,-0.31 -0.36,-0.31l-0.61 0 0 0.63zm3.33 0.36l-0.39 0 0 -0.6 -0.34 0c-0.09,0 -0.17,0.03 -0.22,0.07 -0.05,0.04 -0.12,0.12 -0.2,0.24l-0.19 0.29 -0.43 0 0.23 -0.34c0.01,-0.01 0.02,-0.04 0.05,-0.07 0.02,-0.04 0.04,-0.07 0.05,-0.08 0.01,-0.01 0.03,-0.03 0.05,-0.06 0.02,-0.02 0.04,-0.04 0.05,-0.06 0.02,-0.02 0.04,-0.03 0.06,-0.04 -0.14,-0.04 -0.25,-0.12 -0.34,-0.23 -0.08,-0.11 -0.12,-0.23 -0.12,-0.37 0,-0.19 0.06,-0.35 0.2,-0.49 0.13,-0.13 0.34,-0.2 0.62,-0.2l0.92 0 0 1.94zm-0.39 -1.57l-0.57 0c-0.12,0 -0.22,0.03 -0.29,0.09 -0.07,0.05 -0.11,0.13 -0.11,0.23 0,0.1 0.04,0.18 0.11,0.24 0.07,0.05 0.17,0.08 0.29,0.08l0.57 0 0 -0.64z"/>
   </g>
  </g>
 </g>
</svg>
