<?xml version="1.0" encoding="UTF-8"?>
<!DOCTYPE svg PUBLIC "-//W3C//DTD SVG 1.1//EN" "http://www.w3.org/Graphics/SVG/1.1/DTD/svg11.dtd">
<!-- Creator: CorelDRAW 2021 (64-Bit Оценочная версия) -->
<svg xmlns="http://www.w3.org/2000/svg" xml:space="preserve" width="150px" height="150px" version="1.1" style="shape-rendering:geometricPrecision; text-rendering:geometricPrecision; image-rendering:optimizeQuality; fill-rule:evenodd; clip-rule:evenodd"
viewBox="0 0 28.99 28.99"
 xmlns:xlink="http://www.w3.org/1999/xlink"
 xmlns:xodm="http://www.corel.com/coreldraw/odm/2003">
 <defs>
  <style type="text/css">
   <![CDATA[
    .fil9 {fill:url(#id0)}
    .fil8 {fill:url(#id1)}
    .fil5 {fill:url(#id2)}
    .fil3 {fill:url(#id3)}
    .fil4 {fill:url(#id4)}
    .fil6 {fill:url(#id5)}
    .fil7 {fill:url(#id6)}
    .fil1 {fill:url(#id7);fill-rule:nonzero}
    .fil0 {fill:url(#id8);fill-rule:nonzero}
    .fil2 {fill:url(#id9);fill-rule:nonzero}
   ]]>
  </style>
  <linearGradient id="id0" gradientUnits="userSpaceOnUse" x1="9.6" y1="11.89" x2="10" y2="13.46">
   <stop offset="0" style="stop-opacity:1; stop-color:#1B5F90"/>
   <stop offset="1" style="stop-opacity:1; stop-color:#009FDE"/>
  </linearGradient>
  <linearGradient id="id1" gradientUnits="userSpaceOnUse" x1="9.53" y1="13.17" x2="10.25" y2="12.81">
   <stop offset="0" style="stop-opacity:1; stop-color:#008DD2"/>
   <stop offset="1" style="stop-opacity:1; stop-color:#A2DAF7"/>
  </linearGradient>
  <linearGradient id="id2" gradientUnits="userSpaceOnUse" xlink:href="#id0" x1="17.21" y1="10.73" x2="19.17" y2="17.84">
  </linearGradient>
  <linearGradient id="id3" gradientUnits="userSpaceOnUse" xlink:href="#id1" x1="7.76" y1="11.81" x2="10.28" y2="16.5">
  </linearGradient>
  <linearGradient id="id4" gradientUnits="userSpaceOnUse" x1="18.52" y1="9.49" x2="20.76" y2="10.16">
   <stop offset="0" style="stop-opacity:1; stop-color:#1B5F90"/>
   <stop offset="1" style="stop-opacity:1; stop-color:#008DD2"/>
  </linearGradient>
  <linearGradient id="id5" gradientUnits="userSpaceOnUse" xlink:href="#id1" x1="10.52" y1="10.99" x2="9.78" y2="14.92">
  </linearGradient>
  <linearGradient id="id6" gradientUnits="userSpaceOnUse" xlink:href="#id1" x1="9.82" y1="12.41" x2="10.7" y2="10.99">
  </linearGradient>
  <linearGradient id="id7" gradientUnits="userSpaceOnUse" x1="14.5" y1="1.87" x2="14.5" y2="27.13">
   <stop offset="0" style="stop-opacity:1; stop-color:#F1F3F3"/>
   <stop offset="1" style="stop-opacity:1; stop-color:#E7E9E9"/>
  </linearGradient>
  <linearGradient id="id8" gradientUnits="userSpaceOnUse" x1="1.03" y1="-0.72" x2="27.17" y2="28.81">
   <stop offset="0" style="stop-opacity:1; stop-color:#F1F3F3"/>
   <stop offset="1" style="stop-opacity:1; stop-color:#FEFEFE"/>
  </linearGradient>
  <linearGradient id="id9" gradientUnits="userSpaceOnUse" xlink:href="#id8" x1="3.09" y1="1.61" x2="25.23" y2="26.62">
  </linearGradient>
 </defs>
 <g id="РЎР_x00bb_РѕР_x2116__x0020_1">
  <metadata id="CorelCorpID_0Corel-Layer"/>
  <g id="_2367284037520">
   <path class="fil0" d="M28.99 14.5c0,8 -6.49,14.49 -14.49,14.49 -8.01,0 -14.5,-6.49 -14.5,-14.49 0,-8.01 6.49,-14.5 14.5,-14.5 8,0 14.49,6.49 14.49,14.5z"/>
   <path class="fil1" d="M14.5 27.13c-6.97,0 -12.63,-5.67 -12.63,-12.63 0,-6.97 5.66,-12.63 12.63,-12.63 6.96,0 12.63,5.66 12.63,12.63 0,6.96 -5.67,12.63 -12.63,12.63zm0 -24.56l0 0c-6.58,0 -11.93,5.35 -11.93,11.93 0,6.57 5.35,11.93 11.93,11.93 6.57,0 11.93,-5.36 11.93,-11.93 0,-6.58 -5.36,-11.93 -11.93,-11.93z"/>
   <path class="fil2" d="M26.78 14.5c0,6.78 -5.5,12.28 -12.28,12.28 -6.78,0 -12.28,-5.5 -12.28,-12.28 0,-6.78 5.5,-12.28 12.28,-12.28 6.78,0 12.28,5.5 12.28,12.28z"/>
   <g>
    <path class="fil3" d="M9.25 10.76l-1.38 0c-0.67,0 -0.88,0.1 -1.21,0.67 -0.22,0.39 -0.37,0.64 -0.59,1.03 -0.21,0.37 -0.35,0.61 -0.57,0.98 -0.33,0.58 -0.36,0.81 -0.02,1.38 0.22,0.39 0.36,0.64 0.59,1.03 0.21,0.37 0.35,0.61 0.57,0.98 0.3,0.53 0.48,0.68 1.01,0.71 0.07,0 0.15,0 0.24,0 0.43,0 0.7,0 1.13,0 0.45,0 0.74,0 1.19,0 0.66,0 0.85,-0.13 1.18,-0.71 0.21,-0.37 0.35,-0.61 0.57,-0.98 0.22,-0.39 0.37,-0.64 0.59,-1.03l0 0c0.33,-0.57 0.31,-0.8 -0.02,-1.38 -0.22,-0.37 -0.36,-0.61 -0.57,-0.98 -0.18,-0.31 -0.39,-0.64 -0.59,-0.99 -0.02,-0.03 -0.04,-0.07 -0.06,-0.1 -0.03,0.16 -0.03,0.31 -0.02,0.49 0,0.34 0.01,0.7 -0.09,1.03 -0.04,0.11 -0.08,0.21 -0.13,0.3l0.29 0.51c0.22,0.39 0.21,0.54 -0.01,0.93 -0.15,0.25 -0.24,0.41 -0.38,0.65l-0.04 0.07 0.01 0.01 -0.34 0.58c-0.22,0.39 -0.34,0.48 -0.79,0.48l-0.77 0 0 0 -0.03 0c-0.3,0 -0.5,0 -0.8,0 -0.05,0 -0.1,0 -0.14,-0.01 -0.3,-0.02 -0.43,-0.12 -0.61,-0.44 -0.15,-0.26 -0.25,-0.42 -0.4,-0.68 -0.14,-0.25 -0.24,-0.41 -0.38,-0.66 -0.22,-0.39 -0.24,-0.54 -0.01,-0.92 0.15,-0.26 0.24,-0.43 0.39,-0.69 0.14,-0.25 0.24,-0.41 0.38,-0.65 0.22,-0.39 0.35,-0.48 0.79,-0.48l0.14 0c0.11,-0.37 0.35,-0.71 0.66,-0.96 0.07,-0.06 0.14,-0.12 0.22,-0.17z"/>
    <path class="fil4" d="M16.29 10.3l0.19 0 0.09 -0.24 0.46 0 0.1 0.24 0.19 0 -0.36 -0.85c-0.03,-0.08 -0.08,-0.11 -0.16,-0.11 -0.08,0 -0.12,0.03 -0.15,0.11l-0.36 0.85zm0.49 -0.75c0,-0.02 0.01,-0.04 0.02,-0.04 0.02,0 0.02,0.02 0.03,0.04l0.16 0.38 -0.37 0 0.16 -0.38zm1.49 -0.2l-0.17 0 0 0.7c0,0.01 0,0.03 -0.02,0.03 -0.01,0 -0.01,-0.02 -0.02,-0.03l-0.4 -0.64c-0.03,-0.04 -0.07,-0.07 -0.15,-0.07 -0.09,0 -0.15,0.05 -0.15,0.13l0 0.83 0.17 0 0 -0.7c0,-0.02 0.02,-0.02 0.02,-0.02 0.01,0 0.01,0 0.03,0.02l0.4 0.63c0.04,0.07 0.09,0.09 0.15,0.09 0.08,0 0.14,-0.04 0.14,-0.14l0 -0.83zm0.62 0.95l0 -0.81 0.38 0 0 -0.14 -0.93 0 0 0.14 0.37 0 0 0.81 0.18 0zm0.63 0l0 -0.95 -0.18 0 0 0.95 0.18 0zm0.13 -0.29l0.49 0 0 -0.14 -0.49 0 0 0.14zm0.5 0.29l0.19 0 0.1 -0.24 0.46 0 0.1 0.24 0.19 0 -0.36 -0.85c-0.04,-0.08 -0.08,-0.11 -0.16,-0.11 -0.09,0 -0.12,0.03 -0.16,0.11l-0.36 0.85zm0.49 -0.75c0.01,-0.02 0.02,-0.04 0.03,-0.04 0.01,0 0.02,0.02 0.03,0.04l0.15 0.38 -0.37 0 0.16 -0.38zm1.44 0.29l-0.18 0 0 0.26c0,0.01 0,0.03 -0.01,0.05 -0.02,0.01 -0.04,0.01 -0.05,0.01l-0.23 0c-0.08,0 -0.15,-0.02 -0.19,-0.1 -0.01,-0.03 -0.04,-0.09 -0.04,-0.23 0,-0.14 0.03,-0.2 0.04,-0.23 0.04,-0.07 0.11,-0.11 0.22,-0.11l0.42 0 0 -0.14 -0.48 0c-0.09,0 -0.17,0.02 -0.23,0.06 -0.14,0.09 -0.15,0.27 -0.15,0.42 0,0.14 0.01,0.3 0.12,0.4 0.05,0.04 0.12,0.07 0.23,0.07l0.4 0c0.03,0 0.07,0 0.1,-0.02 0.01,-0.02 0.03,-0.05 0.03,-0.1l0 -0.34zm0.9 0.46l0 -0.14 -0.51 0c-0.03,0 -0.05,0 -0.06,-0.01 -0.01,-0.01 -0.01,-0.02 -0.01,-0.04l0 -0.22 0.56 0 0 -0.14 -0.56 0 0 -0.2c0,-0.01 0,-0.03 0.01,-0.04 0.02,-0.02 0.04,-0.02 0.05,-0.02l0.52 0 0 -0.14 -0.62 0c-0.03,0 -0.08,0 -0.11,0.04 -0.02,0.02 -0.03,0.06 -0.03,0.1l0 0.67c0,0.04 0,0.08 0.03,0.11 0.03,0.03 0.07,0.03 0.11,0.03l0.62 0z"/>
    <path class="fil5" d="M23.33 11.05l-0.57 0c-0.33,0 -0.58,0.14 -0.74,0.41l-1.13 1.5c-0.15,0.15 -0.3,0.15 -0.44,0l-1.09 -1.48c-0.21,-0.28 -0.49,-0.42 -0.85,-0.41l-0.32 0 -0.01 0 -0.56 0c-0.34,0 -0.59,0.14 -0.74,0.41l-1.14 1.5c-0.15,0.15 -0.29,0.15 -0.44,0l-1.09 -1.48c-0.21,-0.28 -0.49,-0.42 -0.85,-0.41l-0.41 0c-0.34,0.06 -0.4,0.25 -0.18,0.56l1.71 2.31c0.16,0.22 0.16,0.44 -0.01,0.66l-1.7 2.36c-0.22,0.31 -0.16,0.49 0.18,0.55l0.41 0c0.36,0.01 0.64,-0.13 0.85,-0.41l1.22 -1.59c0.11,-0.15 0.23,-0.15 0.34,0l1.19 1.59c0.21,0.28 0.47,0.42 0.78,0.41l0.48 0c0.39,0.02 0.49,-0.12 0.3,-0.4l-1.87 -2.71c-0.13,-0.19 -0.14,-0.37 -0.01,-0.53l1.51 -1.95 1.47 2c0.13,0.14 0.25,0.29 0.37,0.44l0 2.49c-0.02,0.44 0.19,0.65 0.63,0.64 0.45,0.01 0.67,-0.2 0.66,-0.63l0 -1.18 0 -1.32c0.21,-0.18 0.38,-0.35 0.51,-0.51l1.87 -2.41c0.2,-0.26 0.09,-0.39 -0.33,-0.41z"/>
    <path class="fil6" d="M11.56 10.37c-0.79,0.13 -1.7,0.27 -2.34,0.8 -0.54,0.44 -0.82,1.18 -0.44,1.8 0.51,0.85 1.81,0.85 2.12,-0.17 0.09,-0.29 0.08,-0.63 0.07,-0.93 0,-0.28 -0.01,-0.46 0.08,-0.72 0.11,-0.31 0.27,-0.56 0.51,-0.78z"/>
    <path class="fil7" d="M11.37 10.45c-0.43,0.08 -0.79,0.15 -1.2,0.29 -0.47,0.16 -0.93,0.39 -1.22,0.81 -0.35,0.51 -0.42,1.11 0.03,1.59 0.35,0.38 0.89,0.49 1.36,0.26 0.25,-0.11 0.42,-0.35 0.49,-0.61 0.24,-0.81 -0.16,-1.42 0.47,-2.25l0.07 -0.09z"/>
    <path class="fil8" d="M9.82 13.39c-0.5,0 -0.92,-0.29 -1.11,-0.72 0.04,0.16 0.13,0.32 0.27,0.47 0.35,0.38 0.89,0.49 1.36,0.27 0.21,-0.1 0.37,-0.29 0.45,-0.5 -0.22,0.29 -0.57,0.48 -0.97,0.48l0 0z"/>
    <path class="fil9" d="M8.71 12.67c0.19,0.43 0.61,0.72 1.11,0.72 0.4,0 0.75,-0.19 0.97,-0.48 0.02,-0.04 0.03,-0.08 0.04,-0.12 0.07,-0.23 0.08,-0.44 0.09,-0.65 -0.19,0.11 -0.4,0.23 -0.57,0.29 -0.25,0.1 -0.54,0.12 -0.79,-0.02 -0.38,-0.22 -0.43,-0.35 -0.82,-0.45 -0.08,0.24 -0.1,0.48 -0.03,0.71l0 0z"/>
   </g>
  </g>
 </g>
</svg>
